<mxfile host="Electron" modified="2024-05-08T15:48:10.938Z" agent="Mozilla/5.0 (Macintosh; Intel Mac OS X 10_15_7) AppleWebKit/537.36 (KHTML, like Gecko) draw.io/24.2.5 Chrome/120.0.6099.109 Electron/28.1.0 Safari/537.36" version="24.2.5" etag="e78E93Z0jceMBn6TQpUt" type="device">
  <diagram name="Page-1" id="JxxNZokEpPN4Vboil31e">
    <mxGraphModel dx="641" dy="483" grid="1" gridSize="10" guides="1" tooltips="1" connect="1" arrows="1" fold="1" page="1" pageScale="1" pageWidth="827" pageHeight="1169" math="0" shadow="0">
      <root>
        <mxCell id="0" />
        <mxCell id="1" parent="0" />
        <mxCell id="-pecQT9mD7vACu7W63CI-52" value="Application Specific Stack" style="fillColor=none;strokeColor=#5A6C86;dashed=1;verticalAlign=top;fontStyle=0;fontColor=#5A6C86;whiteSpace=wrap;html=1;strokeWidth=3;" parent="1" vertex="1">
          <mxGeometry x="1040" y="345" width="400" height="455" as="geometry" />
        </mxCell>
        <mxCell id="-pecQT9mD7vACu7W63CI-15" value="Slack Interface Stack" style="fillColor=none;strokeColor=#5A6C86;dashed=1;verticalAlign=top;fontStyle=0;fontColor=#5A6C86;whiteSpace=wrap;html=1;strokeWidth=3;" parent="1" vertex="1">
          <mxGeometry x="440" y="345" width="520" height="455" as="geometry" />
        </mxCell>
        <mxCell id="d3FJ1h9GNW7J8V9dyUp9-5" style="edgeStyle=orthogonalEdgeStyle;rounded=0;orthogonalLoop=1;jettySize=auto;html=1;entryX=0;entryY=0.5;entryDx=0;entryDy=0;startArrow=classic;startFill=1;" parent="1" source="d3FJ1h9GNW7J8V9dyUp9-1" target="d3FJ1h9GNW7J8V9dyUp9-4" edge="1">
          <mxGeometry relative="1" as="geometry" />
        </mxCell>
        <mxCell id="d3FJ1h9GNW7J8V9dyUp9-1" value="Users" style="sketch=0;outlineConnect=0;fontColor=#232F3E;gradientColor=none;fillColor=#232F3D;strokeColor=none;dashed=0;verticalLabelPosition=bottom;verticalAlign=top;align=center;html=1;fontSize=12;fontStyle=0;aspect=fixed;pointerEvents=1;shape=mxgraph.aws4.users;" parent="1" vertex="1">
          <mxGeometry x="160" y="465" width="80" height="80" as="geometry" />
        </mxCell>
        <mxCell id="d3FJ1h9GNW7J8V9dyUp9-4" value="&#xa;&#xa;&#xa;&#xa;&#xa;&#xa;&#xa;Slack" style="shape=image;aspect=fixed;image=data:image/png,iVBORw0KGgoAAAANSUhEUgAAAlgAAAJYCAYAAAC+ZpjcAAAACXBIWXMAAAsTAAALEwEAmpwYAAAAtGVYSWZJSSoACAAAAAYAEgEDAAEAAAABAAAAGgEFAAEAAABWAAAAGwEFAAEAAABeAAAAKAEDAAEAAAACAAAAEwIDAAEAAAABAAAAaYcEAAEAAABmAAAAAAAAAEgAAAABAAAASAAAAAEAAAAGAACQBwAEAAAAMDIxMAGRBwAEAAAAAQIDAACgBwAEAAAAMDEwMAGgAwABAAAA//8AAAKgBAABAAAAWAIAAAOgBAABAAAAWAIAAAAAAABfecQoAAAgAElEQVR4nOzdCZxdRZk28OetOufe3ruzQcIqW0I6ISR0EsJOBGQRUcHEBWVGx2XEUcdlEAWnjSMifjqO87nhLN/o/FwmOMpmUEBCIIQlCcEkhFV2ELJ2d3q5955T9X6/up0gKiBJuu/6/DUiIUkX554+97lVb70lIKI9MuvOvqmRS4/SFOMlkkOhOg2iRmBOhDEC1Vf/A0Sg3jtAN0KwTlT7vcMDAjxhjH90EPFv153QsY0vE73UtJ98cn80N8yVSPYR7yepsUeLIoXIcWKkGf4v3HdF6uG1R0XWKtArit+plUeMM0/IYN+63y78xrO86kS7R3bz9xHVpRn3abMd7J1kknSsxFGb9druRQ4TrweqkRZA94Ziv+HYhCm7ELA8oH0CeQaiOfXyHFQ3w8gLgDyt1j+riW4R4zdLnNm88uj2LaX6d6by61y8IKNNkydFVscZZ9u91VakcjCgB8PoGEDaARwCwAvkMBjJ/sX7LtDiLxoA8AyAQQU2qsjzEu49j2fEyDNesNmKbnYFt3n9vZlNWLTIl+LfmajaMWARvZrFarsO3tYiA9qmmnQgk5kliuPhMF2sHBq1dkyAc9DiBJSGoASEH+G9y6W7+N0oEGN3/NUAYgBjIFEELeThh4bWK7BGBGu883cDeDqOMvlCtq9/9ex9B/lC1hBVmXLNRS1NQGtiojaITIUxJwJ6pIEcahoz+4u10HTHfRdi0ov33S7mn+L9tuOtwAgkfDQwO+5BI3D9Q4+F+w4ea7zRlRpHDyKPAprRv2H+ov5R+LcnqgkMWER/qlvNgi9AnrxhS3PSGE22EU4T+LeF1UDb0CghOBU/+O/8UbLvVjP8RmgMfJKEb97HVHW5Qm9Sl/6md9L4rbPuk/SqheL4olYhhSy4arG5c7+nM+1bX3id8fb1as15AplnGzKNIUwN33fFAFa6cYUAFt4pjCl+gNDUb/TAHdaYm1xu8Mbe1D13DI4pXLVgoYcUR0dEDFhEf27O3dun+UK6wAjODKuCOz6GxAKxxXeaUr65vZwXx6BetbgklFfoFlW9BcDPt4u79aHjJ2wv7yBpVx1+w+cmxSnerkbONmLmqmoMIBKRqDLuu2IIDD9UBWF6NoX6cJ8t916vUSncuOHsrz1f3kESVQ7OYBEBmHL1ptbWMeYsY2WhQo6A6HhA2kyUsWHpRTWUSFXYh/PwplucXSjWcIXZjX4Bej3wGDS92UT42T3zxm8o9zDpVVzZFc/Y5/TXqzELBDhGIRNEtF2szYQw8+JMaaXZed+F/3gdEkVfsY5L/e0O0VX3n71oRbmHSFRuDFhU12b9ZuuBcdaeq/CnATgwZC2bbbShpkpdqG+pknreHXVbEsXwSSGM/QWIbAD0Tk3Sq1edPGHlH36xhmRWge/a9ePAX3y8ozXbeq5RPVMl7DyVw2xD1Kxeh2uoXtMOwMoQlq2L9WDewzvXA9WHILISkKvXnfVPvyn3+IjKhQGL6tK8mzfvm2bMfBg504icYFva99cQTJL8cKF6NQthK8pArIEbGhyC4iYR3OqMuwOZcWtWz5ak3EOsV3Pv6m7LbXEnquKNEJxsGzOHF3eRFtJdL06vNCG2W1MMWz6fhNm3W0VkqRjcHvUV7l298Irecg+RqJQYsKiuzFuvY/2WzTPV2jMNzDuiMe37pf2D0LQ2M0fYlWiyDXC5QcC7X3nBjxtjvfX2OeOeYUFy6XQu7m5BY9JpDE4xIm+P2luPdIM5aFKj+xFEYLIx4DxcIVkJkR+joDeMbbe/WzZ/0S5uryWqTgxYVBdOWro0KmSO3DeFvA2Kz9jG5gmaFkKw0uFiphoX3vAamuAG+wcN5H9dRr6nxt2/evZYziqMpu5uM7kLY7ORvhHqP22bstM19dCkTjJG2PSaieFyhbDm+RtA/llyZvXac7+wCcJlaqpttf/GQnXvjCU+u6m19xgL/B8Y6SoWjVRLbdUokDgLTfPbvNcrJSl8c+XJe4V6reop+qkWS7ujaduGDjMNmX8W1ddLZDPq6vgyh75azofqsv/ymv/a/SsbH2LTUqplDFhU0+bc1jtZxf8dRM8XSIeY0Mynjt/kgh0Tdur9kIg+pkgvXHncXreVe1i15PCfXzwuiqMPGpELVXRisdUC7VRQ1ee96qX3P7vpp/jQ92tzfZ7qHgMW1ay5d2x9j3r5AASzTBS1hB1a9Txz9efb7EPjyDTstH9KgR+r899dddK4p8s9tGo3fcnnTxLn/0GMzBNrxg23LKvzUP+nM1nF7vO6EeqvF5FvrT3rS2vKPSyikcaARTXn2OWbWhM1F0LMBWKjzuIW8qRQ7mFVJhHYhiakg/1bVfRa65P/uPuEvZeXe1jVaMHiBXZD85TzjeoHIXKszcTi66XWandqs7IZ+KF8ToGbFPjP9W/80tXlHhbRSGLAoprSdUff4aLJuwzMhZJpGFc8DzCcE0ivymQb4fKDqajenHp8O3fCmBs3iDCVvkZHLLloP/HRuQrzEdMQTy62XKj2tgujTyWyUiz6V13tvfvX/nTg2iff+s2ecg+MaCQwYFHNmLN820xR/YgK/sZEGdl5ADO9NmJjqDpomq6H4Cv5gfzVa0+fNMDr9+q6buo+oJBLPgxjPmwyUXsIDLzvdkFokCuAT91zAL6qqfvp+jdf/gLvO6p2DFhUE7pW9MwVr5+Km1sXuqEBvsHtttCkNArd4PvVub822a033TNvcjgGhV7GtCWXHGIcPmbi6GOhPz5nrfbgzgsHmUNC0PrkQH7oR4+d9/WNvOmomjFgUdWbffu2c0XkEpPJHMVaq5HjvR8C5O/Mdveze84az5D1Jzqv/9xMC/mqiaLTqr77fyXR4r13mZfoWxvOXsTDo6lqMWBRVTtq2dbzowifFhPPrMgDmaucqqYC+brPuG+vmssdhjuemdq55JLjreJSMeb04k/xvhs5Yb1weJfhVeLdF9e+6fL1I/inE5WMKd2XIhpZc5b3nG8tPgWYmcWf4JvciDPZhkhFP47UfLBr1bNNI/8Vqo7O+OUlr7cqlwJyWjhgm/fdSF9hhcQ25Kzz1NpLu67tHj/SX4KoFBiwqCodffuWM0X170XMLLERigXtNOK0kNOoqbUBHn9tBhv+Fqp1/czo/FX3XK/y9xCcauLIVP0BzRVKE6cmGxtRvDEx7pIpy/+htdxjItpVXCKkqjPrzq0zYiffgZjjij2uQisGGlWSbYDPDT7ujbkifqbvh3ctPGCo3i75lBu794kT/02BnmMyUaZmD2quIGINNHX9YXfhoLjvPXrW5ZvKPSai16quP41S9Tl2ec8hcYqPmkzDcWF7N8NVaWghH3plHWS8ftFPbDwdqhZ15IjrLx6TTfyFArzJZOIQrljsVwLFGUJrWiDyxQZvzj10SXdbKb4u0UhgwKKq0bVs46RE9T22bcz7fZJnA9FSCkXHSRLqYsar2MuOXL71cGixMUHNO3TJR9scojfDmkskkqwOd2evi3/3ihCOuJJQ+y5faHDueCxYUFfhnqoXAxZVh8VqjbHvEiPdboAdA8oi7NIUY8SYwzNG/mPenb2HoNapSoNrPz6CfhehFQMnrsr0OgDG2oli8Y0ZfzX5tDKNgmiXMGBRVZizT897IOZjEsXctVVOwzs1jcAcnSo+PHvZlv1Rm4ozVNN/9Y/zILgCkW0o94DqXWjDYiI7GSLvO/L6zw3vHCaqYAxYVPHmLt96gkLebTLZA1hzVRnC5gKj8iERe3bn4vUZ1B6dduOlU0X1AyZjp7MVQwUI2V7DAYZ4qxr56yn/zp2FVNkYsKiiTVm+qVVVLhTBCcUlKva6qgjqHGxzSzOMf3/j3vuciVqji61x8nYoFkqxkWi5B0Q7i95tYzaCmnOzExvey6tClYwBiypaq9j3iOiptqE5o2nCt7kK4oa2w2YbjzJW3j5vxcC+qCHTr7/vHHU4N2ppbNaUhVeVxOcKoRHp/rD67qnXXDSt3OMheiUMWFSZutV03dF3uEA+KTYa73ODO87QoEpbshFgvtOkZmYTOhd/eqIYc6GJ7RFuMBd+ivddJdn5MUvlcBtnPt51bTdPGKCKxIBFFWnO8c+OEfhPCmTfHce/lXtI9DJCuwzT1DJRVd/Rdcvmo6v+IinEtmQvhGCGhKcjb7uKpKkLs1itBvKOvEnmd65fUIt1gFTlGLCo4nRduSr2jQ1dAn0fxDTwGJzKpvlciMCHmkx0EarZ4gW284bPTlWV95oo2oud2iubpj7k3yYR0938+1k8SocqDgMWVZxoymGvM4j+QYrn4HAKodKFAGyiOAvVeXNu23IGlmqEKtTV0JmN1F5qQjNV3nfVcSi0SDgVeuZQYeCcKVdfwZBFFYUBiyrL0qVRGutsQE8p7hrkGk1VKAYS0b1hzCWHp33tqDLd3d1mSJLpKjgTIg3FpqJULSErNioXSbb3sHIPh+ilGLCoosxB53QDnGcbm1lYXE28g5jICnBcS6OeOm/FU42oItccXRhnRd5jjOko7qXgxGn1UIVpyhweeXP64T+/eFy5h0O0EwMWVRS12WNF9UwtDJV7KLTLwiyWEQP//lyhfb9quoB5Fx0OkberD4cuMl1VY9G7hSzIZOycco+FaCcGLKoYc+/a3CkG821rR5OGA16puhSDiUKizKlWXCeqxKyru/exomdETdkJxZYMvPWqsgGpNGZmOcU8dPN9jSoDAxZVDHXRmwQ6f7jnFVWrsDfBGj2la3lPVRwGnUoyRwTv9vm03EOh3bUjFBsxXZ2zPzebF5IqAQMWVYR5v3pqrKg/2ja3jtM0KfdwaA/4pAAYe0EErfgDefdb/IlGWOmKmrMHKAvbq5ovJGGjxWnWmDeWeyxEAQMWVYS0qfXNAKbxMOcaoArb2NzuRI6deVtfWHarWB1tDceryMlhiYmqnA/3XTYLyOwZv77koHIPh4gBiyqCGn2DAgcXZz+o6hWbw3o9JpLQcqOCOZknwByfMGDVhGLtpk7WRE8r91CIGLCozFTm3NY72YiZarNNEfsP1YYQlI2gy4ir2F1dndd/eqKBOcI2Zdn3qkb4NA1Hlh4EkVPLPRYiBiwqr26IRPoGge413FiUaoL3iDo6MoCZPveuzW2oQBbZE1TksOFZD6qhZUILI9MOW/yJfXlQN5UTAxaV1Uknw6j3p6iiQ53jq1FDfL64WeEA0fh4VCBRHKNeXxd6KFGNHQTtpbWpqfk0dHezYTGVDQMWlVUh0z8WMPNNJtvIQ51rS9gNqqoHqfpjUGmWnhSpkeOi5mwHC9xrjA+HQPsxXvSUBdM2MGBR2TBgUdl0rXq2ySE5XQSsvarRgBU1N++lKiehwszoP/EUERkD7h6sOSEwmyhqgZg33N00viKXp6k+MGBR2QwVmhvg7RyoRjyepDapSpjFGjfzN1uPRAVx4maranvxkGqqPSIQ1aZ2M/6oBYu7M+UeDtUnBiwqm6xPGhTuDQBiZYF7TVKfQiCtcVYrajehgXm9AGO5PFijhpvGWiiOfrIFDeUeDtUnBiwqmyiO9xFjpsAYwxmsGuVdCFhtIqYLFeLwn188DoLDJY4i7iCsaZHAHz2YFBrLPRCqTwxYVBYz7tNmcb5TbMRXoJYVd4ZqmyqOQgXouvLKOGqQ6RDwTbeGDa/8SqSQ2eoNlwipLBiwqCzaeze1QWUylwZrW6hxMtmsiJHXnfGwz5Z7PJi0OoZGU6Fh+Yj1VzUrvLZGxGaifbwRFrpTWTBgUVkUMtkW7/QwFE+24ItQy8Ihyuo12rSx99iuVRqXdTC5MTHEH46wc5X3XY3T4o7CyPo5nYu7W8o9Gqo/DFhUHqJtEEweTld8p6v52QSRSFQ7gefKG7AaGmJRmSrh/ADOYNW84SeLTG5sTVrLPRaqPwxYVBZJPmkXkSlcpqkDqqFruhWRfe3GbHmL7uIkhsg0eMS892rcjs9uCtmnEMWsuaOSY8CisohNbG1TCx96dWDHTFHodTZZ41xZZ7DycbOH6t6hPqec46BSKd57h3jnOINFJceARWXhrewj1vLq1wkVtWpkn7wv74vuhwYOFGMiMF7VDRFM9KmwFxaVHAMWlVzX0r7x6t3rhrfwU53MIhjxuldj28SyRZsZv/5Us4pOLi4NsuyvfijGR6iAHaxUdxiwqPRaw6dKLtHUVQ2WscZE0SEqg2VcIpwYOrhz7qqeKBC1N3WoVS4RUskxYFHpb7oh2RuKg9VzBqve2jWUU5r0txpgalkHQaXnw4yl4ZwllRwDFpXhpss1CKSZu7jqj0/T5nJ9bUnSWKBsOll3FKqeG2qo5BiwqOSK5/+CZcZ1ZWfPqdRNOXRJGethuDRdd9QrxJvXdS5ls1EqLQYsIirhE8e1Ne0jPICSSidkeyvNPs2y0J1KigGLiEpGYVyccg8flZZ4eOPyrMOikmLAIiIiIhphDFhEREREI4wBi4iIiGiEMWARERERjTAGLCo5o6kFlDvJiIioZjFgUcm5WDapmCfF8PYjIqLaxHc4KrnmluxWFXkOwtuPiIhqE9/hqOT6XYdKaK9MRERUoxiwqORWz5ZedfoCuERIREQ1igGLynPjWbORAYuIiGoVAxaVh0pf0rt1CySc+0xERFRbGLCoLBR+SMQ8w8tPRES1iAGLynPj2XQAiieLf8NZLCIiqjEMWFQWhe0DvQDWA1wiJCKi2sOARWWxNfZbBf4+NhslIqJaxIBFZfHk/INyKuYRqOMrQERENYcBi8rG6+BW59zD6r1nHRYREdUSBiwq382X0wGjcguARAxrsYiIqHYwYFHZNEX7hp2EvxbAQSxfCSIiqhkMWFQ2y+ZLzmlyt4psg/rQr4GvBhER1QQGLCqr1Sft9XtVv17TtMCjc4iIqFYwYFFZdasaKG5QwRaxXCYkIqLawIBFZbUonJqTK1wnis1iI74aRERUExiwqLxEdNVpEx9T1fV+aCARy1uSiIiqH9/NqCKo6rWAPCxRttxDISIi2mMMWFQR+vNDNwH+YbAOi4iIagADFlWEB0/bbwu83uUHtm+WKC73cIiIiPYIAxZVDOeTG6C6VOJMuYdCRES0RxiwqGKsPnniOhW9xQ1uT9gTi4iIqhkDFlUUFXO3KK4Wy2VCIiKqXgxYVFFWHTdmjTOyWL0r91CIiIh2GwMWVR6VNUgLV4kxoU9WuUdDRES0yxiwqOIc/Fz7E4ji73rvcuUeCxER0e5gwKKKc9VCcca33KWK/4H3nkfoEBFRtWHAoop01zHII59ersBDxXosLhUSEVEVYcCiyiTiV50y4SFR/Y56fYbNR4mIqJowYFFFu6dxzJUKt9Lnc8reWEREVC0YsKiyzZYk9XqpiPlN1NJaPBW63EMiIiL6SxiwqOLdd+L4DV7wH0lv73rb3Mq+DUREVPEYsKgqFJqHroPIv6UD/RtZj0VERJWOAYuqgMramZMGcoXk5+rx35rklbsKiYiokjFgURWQYt3Vuvnjn4kcvqcqSzT0bmDrBiIiqlAMWFRV7prf8aj38QfE6wbApwxZRERUiRiwqOq0+OZNKu596vRJCM8rJCKiysOARVVn2XxJm5Lx96mxF/jU3SfZBnZ6JyKiisKARVUbslYd175CDC7W3OCdprEZbERKRESVggGLqtrK4zp+7VW/4gb6bxVrEX4QERGVGwMWVb1Vx4+9VqBf9IX8Dd6lqdiIS4ZERFRWDFhUE+45fszSvJOPQHGTpklvcXch2zgQEVGZMGBRzVh70pjHcyrnq8p/eue2CHcYEhFRmTBgUU1Zd3x7j9/Q/hkoLvLOPWEbm8o9JCIiqkMMWFRbRHT1hyRp3q/jxx76vnSg/7pQkyWZbLlHRkREdSQq9wCIRsOygyQH1WWzV2zd5JN0BZLk/Li9Y7ob6Ec4ZYeIiGg0MWBR7RLxq4D1c+/yT0lh2xNJ77a3Q+Qsk23IwKVQx6BFRESjgwGLat4980wfgJ/OvLV3dRz5J30hfzJUp5pMNqMuBbwv9xCJiKjGsAaL6sZ9J7c/svL4MX8P5y9V1SWukHtevWPfLCIiGnEMWFR3Vp449vpVJ4x9q6b6N+KxoliT5TmNRUREI4cBi+rW2SeN/VW+pePNruBf7xXXqfoBiWIUO8ETERHtAb6TUN1aJBKKr3q6Vulyl9/2WJTYfbwmp0L8O2y2sVPiDHw+h2Kdlmq5h0tERFWEAYvq3urZkgB4MvyYfuf2x5ry/laH/HTJDc1VI8eYTMMUE8XFXYfqkuHdhwxcRET0KhiwiF5i/TGtLwAIP27vWrppqYltl88PTvM5Mw0i+0FwkMlkxpgosyNo+eHgFUq4lLsRiYhoGAMW0StYPX/CgwDCD8y8s/ewOJXpgJuj+aEjXD6/lxc0G0WrQjpE0GbibPGAad0ZtFg3/wfh4G1VaJoY4R1HRHWAAYvoNbjvmPZHAIQfvwh/P+XGgX2as4XDxcpkVd8limkun5sAIw1QxFAVMZJVRUgWvMZQA4gXkXy8Fy8IEdU+Biyi3fDQG5qfAxB+3PLSnz/65uf31ijbqT41Yu2xkOJOXSYsFIOmGsk+kGxEypuOiGodAxbRCLr71IkbT1qqW/ofWS1+0qQ7sQ8v70sd3DUmf5UIzygioprHgEU0snTZfNk5QxN2J9JLrObVIKI6wUajRERERCOMAYuIiIhohDFgEREREY0wBiwiIiKiEcaARURERDTCGLCIiIiIRhgDFhEREdEIY8AiIiIiGmEMWEREREQjjAGLiIiIaIQxYBERERGNMAYsIiIiohHGgEVEREQ0whiwiIiIiEYYAxYRERHRCGPAIiIiIhphDFhEREREI4wBi4iIiGiEMWARERERjTAGLCIiIqIRxoBFRERENMIYsIiIiIhGGAMWERER0QhjwCIiIiIaYQxYRERERCOMAYuIiIhohDFgEREREY0wBiwiIiKiERahxnWt6huP7QBi3w6n7caKQZKUe1hEw+IYmqqDld4GYFv4qeUndBT/SkRU6Y78RXdHksBYO9QkGdvhrDaKGn25X6vOi42iVJzfmE98Lm0YSB496//2oUbVRMCacZ82x72b2oyg1UimVUXbABeriSdJzr8OMVShe8Po3oBaieOXffGJSk3hxUQmUejGvNffhznluXf0POa97zeCHmfiHpv092tDU99Ac9v2DdOlwFeJiEpMDl3S3drsklZEpkMTHSNAU2ol4+COsLExqpkOQCcKpFUA/7J/ijUGioIT83iUkQHr24eO+OWlz8LoRqQmD8GgOL81lmj76jct2gJBVb9XV2XA6lr1bFNcaG7I+6TBptjXDG6bChNPVoND1fvJCjncNrc3irFQ54Z/k3rAh9eqql8vqkkCGIHIjhV7YxFFgrRn2xbjkrXeZB9FwT/c6vsePvrWjQ9kpKm/zydDyYSOQQYuIhppCxYvtmszK5vilqjJDJgmL/4AFXeYCg5T9TNgzZESR5My2Rjqd2Qp1eJ7bPhLeKS9msiEXyDD/7UGPleA924TVJ+BxeqCpI9Mve6zq80S84T6/ECcNOd6epB78r2Lcqgi1RGwVIsv10m3whYy/WNdPjnde5kTwb5BYpkiJoaKh4QX1ipEFX5woNyjJtozYseJwXyBzJfid4DAR3EuL8maLHBLvK331uk3b1+37pSWjfIFCBbJy39qJCJ6Le+zX/iCzDikv/HB1vumZDR7EvJ6CmLpshJPLL4LR2b4fRYKTR1cumMCYxfpyz3uRCbAmAkAZoXnXTaTgS8kW1Ua7nWZ9O72vc3dnYu7f73g/kXpInQDixZV/PPuL+TMynDE8k1TGo09TR1OgZj5Ao0UiASIYcwfCvV3vPBENWU4XQ0Li92qDoJEtDgn2wvFPQr8cDAt3Lhh/t795RxqJZv2i0v2txlcDDEXFq9p8aM21TrTkIEbLHzeReY7G85YtLXc46lUR97QfbLz6Tki5myo7jucDiQWRQTzkqxQim8b2fE/w8+7FEAqRgrqdavCL4PHNTm7/TeVXr9VsTNY83711Ni0qfXNIngDgE4oJkDQYTKZRvgwWxUuvOdDkmrfnwQBMcZKWP824dOkNvk0fYMIZjTH2e1dy7feAjVLkseHVqy9YBKncYnoFU295tJpJtIFBuYk7/2+BjIeImMktsPLfTvLakr9WURf/J/wvItEJIKgAaG+2mMcrJzciPZnjvjlpfcq5Lr1b/ynm1CBKi5gzbxtc2dsozc5YC5UpwtwkMk2xqoKcSk0YY0v1bnihwsH+OHpeWNto0TRQRJlkA70HgAjJ8QHZ3875/att6nYu1Yd3/5QuYdMRJWhc/EnxsYNTbO9xetVcIyoTDGZaO/ipK7zxZoqTXZv6W9UaHEW68W/Nda2wppWqB6ohfQIqB4z/ZeXng/oMm+jaypplrIiAtZJSzUajHumq+ixRs3JgL7eNLWOQzFQJfCFqqprIyop9Q5acEAhDxNnOkymocvlBrvUpSdC/N2z79h2iysUblszf+9H+dIQ1acjrr94jIb3VyMneMgcAeZELY1Zn0ugaVo1K+bqPBB+hAL5yLaZOJoNI7PdwNCxRt3sGdddensieucDZ1/2ZF0HrK5Vq+Ko/4DXDdptcwCcZ1TOsK3tTX5oAH6QpSREuyo8KF3aH+bVYbKNhxprD02HBt5mo8x/zl7R83MruXV3z9t7E4QF8UT14Nirr2jti3unQM0pxuKDJps5OPy8JilcfxVPXuiOGTc3vKplMvFhtil7WNIz8Gar+NmMay65Nm6L1q6ev2hzfQUsVem8s3cMEnT5yF8kwCmmsUV8PgfX31uWIRHVFPXQQh5hol/EZqPmpg+ng33necQ/mb2i90c9Sx5e++hZk/PlHiYRjY6uKz8YD02aNKkHfW+ysB+IWrNHhtkqn6/NRtuaOKS9g2EJcV/TmPm4G8idX+hPvz3jlxf/eOtA/ulnFn5jqC6OyulasX1Kk+IrxusNYqJTIUZ8bmPi1P8AACAASURBVHC4VxURjSz1cEP9oc/WXjbb9HGB/mRMy/gPda3SJl5qotpU2GevMyPrfhhZ8y0xcqQbyA8vr9U49R5uoDgzN16s6VZEd3S0NJ835ep/aK3pgDXl6gdaZ9+29UKL9JcCvKe4E4ptFYhKxidJKF04GNZ8yeR6l8+8vec0Xn6i2nHY9RcffMT1lyyG4N/UyPGhiXHVFFiNNAkNnGW8UfluJm74aed1n5uLWlwinLt86wmquFCMOUWMmSChB/6OXVBEVCJhllhM6PTQqi6dFUO/M3v5tp+5/ND31pyyT9mLQolo93QuXpCxTYe9C2I/AdHDjLGNGiYwiq0W6pTuaPUQ2xak6anW2oOOuOHzP5ZB8/215y3aWP0zWIvVzr5t83u94gsicp5paJoQtlwyXBGVSfj+c2nx051tbDrUAO+Pso1fnH3b1pP4mhBVn8N+dvHBtmnypSLmM7YxMyO0bikeYVPP4eolQtd5sTZjG+KpUP2oNvovTr/h88egmmew5tzdPxGFnvMh9mMmkz0gPNh9bkD/uDU1EZVF8ftxCCbTMN4n+QtgdJ+uO7bsE4v99V3HdlRMLxkiekUy7fpLQi+r90GwwDRm2sK5fvTnhnccethsZi+XL3xAvO5/xPWf+/66lfF1o3XszqgFrFlLXzgUheTdYky3RFGxn9VwvRXDFVEl8UkeoSu8jRtPRW7oEAeZcOTSbT/87fwxPeUeGxG9vK5VH4yHnh1zghH5R9MQnxROOAm7BOnVhV2UYqwRI2dpkh7VOc9pYclHbx2NY3dGZYlw1p1bZ8RR/Jm4raO7eJxQujNcEVFFCg/n/BBsQ+NBgL8sE+nfzluhY8s9LCL6c/st/nrj4HPjT7U2/q6Jo5NCiwJNa3+H4IgJ3erDQdXWTLQeP81o23vm3PTlcaj0gHX0nVvOjL18x2Qb35+Gnlb1unuBqAqFkCViW0Tki85t+/acpf0Tyz0mIvqDrmu7m8Y0bzs/iuxVJraTi0GB77O7x2vY89MYQb6VTwcvPPS/P9qGSg1Yc5ZvPV+9+SLEHKeOU5VEVbvT0JhYjJyLKP/Vo+/c9rrhn1fWThKVUefS7paC8e8WyNdEpHn4MGbaI+ESWhsee59uHNv2jSN+eekRqLSANWfZ1vMB8ynAzA7trYo7GIioOoXD1W2cgdi3eSefn3tbXydEwqmrDFlEZXDw4s+0myF9rxhdJLFtL85aceZqZHgPE9k2gZwvYv5pxv9+dnplBCxVmX37tnPV4NMiMktCEgxbwImoqoXvY5PNNorqO9T4T825fcu0YsgiopI68hfdHc1N8ftE9VOmMTuxuCxIIyrsMDTZOAvo2doQff7QJXu+XLjHAavr9r65InKJieOZYgzDFVENCecZmsamJkDfDpFPzlrac2i5x0RUT7oWf6bdR+6vRPB3UUvDgX6wwA85o8QXUpXYhhNmFjT4jgsnX9s9vmwBa87SbTPF+E+aTOaoYlU+O7MT1WThu8k2NEPkXVGsn+9c+kJLucdEVBcUUmjOLoTBP9jmhoNdf04RjkGh0SJhR6aYcNoFLs/Y9IIwe1jygDXr1s1TNSMfiVtaF2pS4FowUa3PZGUaGkTknJYoOn/eCm0s95iIatriBXbKks91QfQTEtl93VABDFclsqO2zUbx15M4Dee1SskC1pSrN7XaSN4p6v/GDQ7szh9BRFUYssTYDhXzDYfek85Y8nC23GMiqlUHtx8wLgO7WICpcJ6TGGWg6mGN+ca06z73npIFrLZx5kIDudBEsXAXA1F9PXDEmEZ4f+ULTeOOKvd4iGpMcaZk5uLPTmhJm34kggNKcGIwvRKvYXfhvtbI+6fd8LnTsYt2+aWbfdvW90DMBZJpGMdWDER1ZsfWcBNnD7CR+cc5t2+ftuPnWRdCNALfYYff9OVxSVP0IYi+PqxSgR2Pyiv0GhM53qpcMPX6Sw4ctYA1e/mmKSYy7zfWdiK0YmAPDqK6pM7BWHsGkC6cc1PvOLZvIBoZJhmcb0Q/ItZy7qoChIkkk80IVM6IBR/Yld/7ml/AQ7/5cBYafUQVs8TGbCRKVM/Uw4Q+pKLvlgb/lnIPh6gWTFty8RyjeHfU2jgx9GWiyjkg2mTjsYC8fdq1l7xhZAPWlVfG7UdNOEag54u1rT7N78lYiagG+PyQRh1jDlbB2+fetrmz3OMhqmZd136wSdS+y0b2zW4gV+7h0J8Ih2krcJCx0t31GvtjvaaANWv6gn0s8H9gTHtxPZJtzogIIq6/HyJyohfzCV4Qot2Xiya8EzBnSlgZ5HtsZS4VRtYK0JWY9MIDrr94zB4HrFBfEcG+TY3MFpHiiYhERC/WYmWyWSN4/Zzbt/4VrwrRruu8pvtQ6+SCKBtP8QUeNVepisu2IlmI+Vibx+F7HLCk0c+Aus+ICIvaiejP+DQpTp0r5G+OXLptt7seE9UrY90nYXQmT0OpEkbGibXvn/qzV99V+KoBa97Nm/dVyFm2sWUCdwwS0csKU+dxRkR0esbqBQvWa4ZXiugv69Zuc8S1nztKBKdJFLWFOh+qFvIO2yAnYGl3tFsBK82Y+RC8Q9PCqAyPiGqE96EWq12MfOCxLQPjyj0comqwARtEIvu3Auy3m6exUDmoImpuaBLoedPybrgX4K4ErFm/2XqgMXJmZkz7fpomLLkjold+3oSAZSJjMpnpkPTkeSue4lmFRH/BuiWHHALFuTDSwLYM1cXnwtmQcro4OWGXA1YUy3kKnOj6h8JUGKM1Ef3FY3R8oaBi9ELRxl3qeExUb8JW/8jbCwAdO/wWy3mMaqJeEbU0Nhr1Jx15zUXTXnPAmrvk4TYxcmrU2rGfT7g8SESv5YlTPFJCoqbW4xONj8RitbxuRC8vNcl+xpi/LYar0P6IqnIWS0Xm+0z2ra85YGnrXmcocCBrr4hoV2mah0D/qmvvLV28ekR/rnNx90Rn7DkSmVCvyBWiKhWWdaOm7Dg4f8zhP7943GtbIhT/doif4gvs2E5Eu/jQSVOYKDrTGnsErx3Rn7ON/jCoLuBxvrVRfwqRyVFs3vyqAatb1cy5fcs0iBxhMk027AwiItq1J47CNrWEp8vsI1ds3pdXj+hPvkUMptkoms732OrnExcqIw41Yt72qgFrQ3Gq0iwAzDi+8ES0u1xuCAo5MUrlRF5Foj+Yes1F0wR6rMm+YvskqiZeYRpjqGDqtCWXHAJVedmAteaGLc0QnAn4dji26yei3aNpEpqPdhojc3kNif7A2IZ5ApzsCwkvS43QxIXaqmajOG/BVVeZPw9Yi9W2NkaTATnCRBkbtlwTEe3eE0dhMg0QyCEz7tp2EK8i0bAIvtM0ZvZXx52DtdSyAaLjFPL2h3JPNvxZwOo6eFuLjXAaRIXLg0S0xw+dJB9y1uSMk9N4NYmA6Us+O8MLOoutGVjhXlvLhNYaI3JYOv75A3cuE74YsGRA28TgPAFizl4R0R4/c9IEYuQgUT2OV5MobNCXeRAcrC4sKVFNCYFZNY589tRj77io5Y+XCH2mHeqPAsQyWRPRHvMetqExA5GDu1ZpzCtK9U5gZgiwP4/FqdF8BY0UctrW7fEfAlbn0hdaJEq6bLZReCoOEY0kASZgaNvRvKpUzw5c2t2gIoeZTNzIzu01SLV4kAUgJ2ZzLvtiwMoCExU4LjQI5HFIRDRizxznoKodAvOKB6IS1YP2gfyRIpgEY/g+W6tEYJsybT6ODngxYNlMdoxApg2/6tzZQEQjY7jWRNqM8Tw2h+qaepkN1Q7WX9U2TTxUzOzJ135yfDFgRR7tKjhMuauBiEbyYaMeEkWN6jFzAQ9/pjqmJpqpQDuXB2tYcY5Kw1msR7WidThgqWh73NYxgcXtRDSyDxyFhCURkbaHJ/Ts/9Iux0T1xBidLEBrsWcS1awdE1Wzkigdb2betrnTqxwGx8aiRDQqT5ywTBgZK4d3XgXuJqS6M+naDzYpsL9kYuFERo0bDlhTDKI2Y0w0S6EHqmdfDiIarQeOxhG0M5rMgEX1ZcHiBXasjDlMFI1hSy3Vvqi5wSZwbcaoHw+glamaiEaDwof3lQhGO9ueeSrDq0x1pbPTGhNPAyTmKSl1IgRpMXsbETnUCPYCZ7CIaDQUZ8wlFGLtM9QcWV5kqidPb+izUOyrouGvVAfCOZPGu0kGqtNUsZ961mAR0Wg8bcJGmmJLmPFJJlS8E9WPwXZjxISVIuGHi3qhChUZayBiZHhCi4hoFB42O5YIBYe3aFvES0z1pMG1WKiZEs6pYylO/ewkNIKOSIATw9NPXVruMRFRrTIG4n1rGr3k/FOiOpDPw2gWrQIYrhDWD4H4CMbI8LowX3oiGl0uUm5XpnrE+76eOA/v/eRQg8VwRUSja+fnt6HCIeju5iwW1Y2M5kNx+6FQcImwvjTwQUdEJUxYOmne6X9TPGmeqB4kDWJEZR+xO1eLqE54BiwiKiGJk8z+3FRD9UXA/m91iAGLiEqHJ8pTHZ+fQvWFAYuIiIhohDFgEREREY0wNv0jopJRFZNuYWNjKi0FjLdZ1v5RSXEGi4hKYPi9TazZFI9DoVyXPBxgUa6vTeUhEl5yv20oemiArwGVkISjcsIdWMovSkT1ZscjJrLm6dWzJSnHEKJIvYiULdxRmRgJt9/zT87/QY6vAZWMIjWqPlXPk56JaJSJwDrbW67rnG9oyaniuXJ9fSqT4iSC9vP6U8kUT3iWLQYeGyHSy1ksIhpN6n3qm8tXf9XRnB30Dk+W6+tTeWjKU2qoxETCKYQvGBhdL16fFWNLPQQiqpcZBOdUoE+5QvnOIkw29wn4mKs7LpfvUbGD5R4H1eGOHlGEqdMcZ7CIaHSESStJFXguyfeVLWCtPmfRoIh/oFxfn8qguDqI570xQ7z+VCpiDJzgaeMhG8TIsyLcUEhEo/CwkeIRbCkg96trLEuB+04+zvSINS8W3VOtE3jVhw3QV+6RUL0FexkyRu0TXrEZhgGLiEbpYRPmy1V7so3Ol/MaGynkfeIeLm7s4e7puiAwPerTsgZ7qi8SWYiXJ423eBTQjQxYRDRKj5viDJaKPOo25tNyXuWWNJNA5F7R0CqC01h1Qd0T2h+xBxaVjOsbDJ8onzNJo/stIE9LxKbuRDQKhmfH09TrPQfn9smX8xqb3GDi4R+CaMIJrDqYObUhRJvVALaWezhUJ4olEfqgiN9ufjtrTI+Bf9YXyvrcI6JapRre6wbcUP53Vy2Usu6Zj7c1JYB9QCEpJ7BqnYQWDT7JuMc2LFzEBrNUwpIIPJzXtHf4o6XXLZobWh8auxMRjdizxhhokhQ8cP/a0yeVfZlmWfO0RCR5IHRHYg1WDQvTk6HOTrE+dpmecg+H6m1Tjz5iMw3DAQsut0WBNRK6jxIRjRRjQ/3VIBQPV8RFXbjQTe2fdb8oeqCeZVi1SooHPDuFPiS2n7NXVMKONAKncm9fc9+mYsAyTS2bvMd94WHIT3VENGLPm+EGxludx22VclWvWrjQecVvvfNDwwcBU63Z8bqGOrulY3pb2GSUSkMBTVxo0bDhmWO/MVQMWCuPbt8i6u9S7mQlohEkcRxqsPqTJL+8si6sLgNka7EnFtWeYsASTeGXnXw/GLCoBIpLg07hV0bwm8PPvOTpMvS0evc4vFfOmxPRHgvdjIcGwlPm8fWnTnyhkq6oT/R2hOaTlmfn1JxQAxPOHxQ8NdCYeWzRokVl7b1GdcJIODUgVeivvfjBPwpYhcjmgeJDJ2VPLCLaU2It1LlnReSeSruaG/bffD9UN6rne2+tCbXE6rVPvVv+17eC9VdUEmGPYFghFJVlbjA78EcB64Atvh/G3ghBgWUJRLTHD5woE2YTHiukhTsq7mrO/n4i0Ht9Phk+OodqR/EoJNnqVW9cVO6xUP3Q4uJfT5J1a3a2BXnxyXL9OfsO+qRwiyq2FD/VMWUR0R4wURQ21Tx034l7LavEC6mKq0VkrcRcJqy11iAQ3bzhuRuvAZcHqQTChzSfai8UV5lt2e07f/6PPrr1DvRsBeQ3qr5/x+4fIqLdeOBESPp6nlX191bq5Vt39mW3q+qTJsNTLGppWdrnCttU/e340GqeP0ilUQz16Fe4WzZgg3vZgPVo/32pqvxCIH08OoeIdvt5k22Aqq506iqu/uolVETvTHoHn+MyYW0Is5Fe9XGjcmO5x0J1Iqz2hTPsBY/nZOINWHjVi4Wdf1x8sGCBH0zblqrH73xS2NlLhIhol/gkH5qM3nHvzePXVPKlS5DeBeBuaYjLPRQaieaizof3rfWDk/uW8oJSKUhkwmaeLfC6/NGzPh7OHNSXD1giumG+9Kv4m9W5FyTOlGSARFRby4NaKDwcid6HRVLR2/T2amxYp5Dlrj+nrDutgV2rSfK8eL/q0cn/l4frUumOAwMegPFX/ek/e9ntM8b7n0FkA9s1ENEuCw8clWvyQ/6RSr96y+YvSp1PVwK4p1gcTVVLIhuWpVfApBXW1JZqutdfPrRux73rzvzyn9WbvuwT5Z4Tx2+AJne5ocGh8KmAiOi18vn89sS7q9ecMvbJarhqGsmjoriheI4YVadwtnMu77ya36w964qKXpamGgv13q9Vj5dtRfMqH9nin0Nwk8k0jOLwiKhmhJpNVYXiB5LvfwJV4sEzv/x7GFzrU7e13GOh3X+jg8ovjHWhpo6oJEwmnN9sbl4/+NDVL/vPX+k3rjy+Y5UIbnW5QfbEIqK/YHj6R1XzavGfa95wwO+r6ZKpT59Q1a+FLuCsxapCCjj4n60788ucvaKS7VhN+4dWefW3YOFVL3tiwKsWHTjIHd67X5nGplEbJBHVSIGx90NQ+UFzoeOR0OkRVWTd2V/ZpnldrM49pKqOIauKZk2NwCfpL9RGq1+6g4toNImY8Mz777axY1+xkfKrV3Vm2tdA7I/dQP8g6xOI6BUeNcNvdCLPR9b+y60no3gOV7VpOOCAp1Tk/4lqErZeU5VwPg+Rb0+4E1WzLE3VLfTNc/nCfQJ7x13HfmrolX7dqzxFVFbPlgRxfCsUP5coy6lzIvrzh02cgSaFXnj87M7j2h4Uqa7Zq51Wd30wdWnyE4Ws8mnqwswIVa5ic1jvUw/8vLmjY8WyRYvSco+J6oNPXQ4q380MFh59tV/3KgFr+CG5am7T09b672kh31M8zJBTWUT0x4XtoSX6yqF87utVfWFCH8BzrnjKw38LHk8UC6epMg3fdlDI03Dui6cf08e+VzT6QisX1dDb7zeZbPP/rF54Re+r/vLX8mcmA7Ie0O+p1yH2iiGinSSKoYX8k8bIdetPnfhCLVyZ+9942f9AsUoTV6zvoQpt7ujdNvX+6vXnXP7gIllU0Q1tqTbsmJzf6lN3OR57bPAv/frXFLBWnza2V5PCN8XoY+pThbA+gajuiRSP0/Ii19x9TPu/1tT18P6rUH+TaeBpFhWnWO8XZhJwX872fbbcw6H6IJGFd7rFqfzb/W2Zu1d/6Pt/8TDx15yUVp6810ZN0wuh8tSOXYVVWWdBRCMjammDy+d+qEny3Vq7puvO+fK9TrHYD+Yek0xU7uHQS9jmLHya3OELeumjZ/FIHCrNjKlPUg/Vuwb7er+J+a+t3u+1T0WJ+JUn7XWbQn/sBvq2mWwD586J6riwPenteVCcLl49f8KDqEEun/7CK/7L5wsp2zZUhhB20+1Dz6mXxfe/9bIV5R4P1U/PK0BXCvSfH3/Xv77mUohdXutT578rgmtcfigN9RdEVEeG2zGE43ASD/8vufYxt6JGPXjuV7YkCRYr5EfFHWtUXiLQ1IXeQz8ezJuf8uWgUghlAj6fPKbQ/1r7xstu2aXfu6tfbNVJ4542Ev07IDep92zdQFRPQu2LDzPl+oNCr128dqYMhJOdUaMeesuXHhKx39MkvbcYskLApLLNImjqrjPQHzx23qKNYQshXwoa9X5Xg/lUPf4nzfirdvX379bHsruObbvDOf8dTdN1YlmfQFQXws4tlzqF3r3duE+uO7tjW/Hnq7Tv1Ws19gXc5xSX+dQ/Wyw9ZcgqC59Pf1dI0kvWvuny9cWfENYB0ygfIO68E6OLC1L4yYOnfWXLrv4Ruz3v3dffcRNEr/Bpsn13/wwiqqL+L8MzV2s8kvMfOm58P+rEsvcuyt2/0l4NdZfC6wtsVVNyoeXVs4nBeybe1/BA6b881SVVr879xgH/+NAbr1i3O3/EbgesR88yed8w5heapu/14QwyfqojqlmmsTkErPvg3IWrj9/7sVqftfozixb5dSu//ENV/yNN020Sc+a+FHbs4OwR79+fas+97NZOJan1C5ne6yNacBfdf9Zlv9vdP2qPKjdXz5ZBM4CbAPk7VZ9KnN3xYYOIaoKq2tZ2uP7tv/Xef2nVyRNW1m2LlkXwEuf/0UO/45Nks8lyk8+oUahtLBYXb1SVz6eDR97Clgw06nY2FlasS9L0nePXNty/R3/cno7nnrPG95nt7meq+JomuZxtamXhIVGNsG0d4vp6Virc5eMHtl6POrf29K8PpBn3DQW+5XKFjQxZoxSuWhrEDeafgsjlQyL/vWHhwsJofCminXYu/at3d6dJ8tEH3nLFmj2dMR2RvcchZMH570DM19LB7c+YbAMLQYmqmQhscyvSvp61HvL15qTvml+dNZnnvQESil1T8d9XwXdcvrDZcLlwRNmWrLj+3FOq+JbJm/969KxFfSP7FYj+2It1lc7f7iFfeuAtV9yGETBizV1C+waXabscim+43ODjoREhj9Qhqt5WDGn/9jXq3Bd7+jZevWz+QTmgdtsx7AIN7QEePPPLv0/j9Fvq9EpfSLYWD4ZmHeqekR3b4vtzj0H914D033/71kU9I/S6Eb2sYvsVDTsG3Qqv/or73/ilEZupH/kH5mK1cydtfb/CfBGCCWKMsCyLqEoYC3XhlGO5N0XmwjXHN68q95AqVHh26oxff6pZXcMiqLxTxOxT/Mjq67NEbY+EcKohu+pjmrpPjWtdcf2y+cv2aHmmUsxc8tkJXu3zYo1R3huVV9DufR6KtercJevffPlNI/nHj3x74oXiXtiv7wfi9YMAHgijH40cR0Sj8bBJw19Xqso7GK5ele6syVp31mWfVuAjCn1SdhbJ0q5R79Xrs6lP3zU19+h1tRKuqNKfd5oAeo1R/9aRDlfBqJz/8ORBB+UOfGHM9VC/UBUri88iG87yIaJKZOI4LAsm6vXf+zalb1h1fPvj5R5TNTnvLHutc26hJnp7sbUAg9YuLM+oqtNlvdbPeWDwd6uuWniVG+3Xi+qbhLMFVYegblGzjT782zd9+dlR+ToYTaoy79beQ3yED0P0b21LW5MbCP0JOYVOVDHF7C1tcH09D8LIv2QcFi8/YUeHdtol3dptFl/rpkZWPwaR99uG2Pg8J2JeiW1pQLJ9aKMA38t5//1HRulNrty4RFhBrIHJRnAD+UfF4/OFJL0pnDk6Wl+uJPPZc+8a2E/T5E0A3m+z2aNCvNICNyQRlY0Iioe1Fw9uzv1QnC7OtedvXTtz0gBflT3Tee1nDjAm8xYDfY9ta5zthwpQ53lZd956kYXJREgHcjcC+IFE9ua1py/aWKsXiAGrMtimLNKBoUEVXO3g/zPBxOWPnvXxUQ0iJSsY6FyvmcaebWcayNshODlqbJ3k80Oh50SphkBExeXATFiVgS8UnlTgGjXpd1cfN+HB4sUJBzfXW5f2UdC16oNx+vvxZzsj7xKY00xs24tF3HUctMJyYAhXLpdsgve/dhZXbjjrsuU7/3GtLm0wYJVXcYdv2GuXT+5Vj+tTX1j8wJu/en9JvjZK7MgVA/tmNP9eUXmHihxibNSg6ovbwolo9BQPZg+FnUmhV0Mhu/fXrzph7Dd5zUf+Uu8MC9Nvvmxv5IY+aYycCegUiaJMcd9PPe0mM2a480fqhwBdC6839m3q/+cn3/vNumjBwIBVppYfOxuHOv+Cer9WrX5z/RmXLSnlB8iybXnpumXz0SYTXQTVeRDsLdbaYjsHnrRDNLKK/ZnCNng/pIrngfR/h3Lp19afOvEFXurSOOKXnz9TRD+kimMBjDHWRlrrz7tw34Vbz/uCQjaJ6m3Go/u+N33pEdQRBqwSCxtMih9gNKeKZwD90baBh694ZuFVQ6UeStn3FM+5bcsZMOYSAY6DsFMf0YgLu7SAHIAfRg32X+6c3Ta8HEglNW/xJxq3NzeeZWE+KpE9SVOvkPI/g0eVagroEvH4xm/fdNmtqEMMWKUVWqWo87/3Hj8XgyvXvfFL61Amo9KmYVc0ubE3bx8yb/GQd6r6mxFFMJlw1E7Zh0ZUpaS4HDhca+X71ePbPofj483pP9zZ1fpQuUdXr+5a+I2h8U3xNbGzb3O5whu8+uuKdUmhrUOtfLY0MrwF3hen536izp0RD6QXTB56+PZyD41qlxgD0xCHdfknXOq6E4PTcnbCp9YNPLShrONChZi3Qhtzhb79oiymmjQ9FcZeYBqb20Ntlk/yrNEi+gvCrkCTyRa/X7SQf1jVXKPeXa3IPr76pObnARavV1IRfPLshP0SI1Mjo+8E5Lyoo7mxuOMwNNKvoqXDYkgcDlXw+fT3anSJevc/Ts3DezVHzy6bv2cH5lY7zmCN4n2XjaBO4XP5+z3MD+GSpca0P7ru7M9WRKuZiglYL9W1/IVDBI0zIf5YIzoPitlRe0fG5xNoOvyDqO5J2JUVDQerKELS1/OsQO7xcHdGxq7Jq39kzXFjn6z761Thjrzmomk+yhwJ9V0CcyysmWcbM9DUFXcdVtzOw+KZgbb4BhfaLSR9Az1QWQnBnQKsdFr43f1nf/WBcg+zUjBgjWRrmeGdqOH/u4H8RlW9XcTcbqEbBt3AmofP+efNqCAVGbB2mnlb34SsJLNVZA5gpiv0AAAH2abmvYrnzvoU6tzwaTxhJyJRDRNjtks64gAAIABJREFUd+zIspA4hhscCG1OnoXIYwI8pILVziUr7715/BosEn5DVJkj/9/HOzCh+Thv5DioHApgCoBDTDZuDksg4VkXZomGn3clXvYLS5hhGSYyYTcgfCHdBOjjUDyi4taIj+6RzOC94eigEo6sKjBg7cF9F553NiR6gRZcOJD5KRE8AS8PqzFrnE9WbDj7y/ehQlV0wHqpuUsebnNt4463MMcocLICYw2kFYI2qLaZbIMMP3iKuweGDw4tPoRqfKcO1eSOv+IbWvG7c/iNrXg/J4WCQgdFzFZV7YficRW5R8QsX3lc223lHjqNnIP/91N7NTQ1n2KdOxHGTIbqRAAdArSJNS3FeyIoljqF/w7/dbefdTvuteFSsB333o570BfSsMQ3CEGPQHqh+oJX3KOCO++/ZuOv8f3vc0nhVTBgvYqdtYfFDLXz/4dgJXD5JBWRXkB7VbFFgOcUugLG37nuzMuroqavagLWn5p5+9YjMzaarT6dA8gsAQ4KJx5CEIeXB0Ck0JB9jRhrdmatYQxcVCl2Bqkdt6V3odWng0oixXagEnZhpQIMqMh69fqI8+62JEmXs81C/Zh+zWdniLHzVfQoIwjPvLEAMqFBtQJxOPFIFUZEohfbI7yWx9zOe8+Fe01D1+cUAi8Qp4qCAKkCD6jqIxC9sxDh1odPv4znVO5ywPr/7N0JvF1VeTf+37PW3ufcc4cMZB5ISAgBQoJioiiKSBVRZIqYACq2tg6vU612sIN9I/bft29ttdr23yrWCWVKRAIiVRERUUBImBISkpCR5Gae7njO2Xut5/2scxNAChiSe88+w+/L55IJ7l0559y9f+dZaz0r2hWmt7SZ+p8dQepQX3nNeak0w0SigIMgOfTyXaFOl0kkv9ov9ldb33b1PtSZug1Yz/e2tT6/e9fBs0R1lohMgupMNTJRvI41UXRipbpFVNMnu/tUoFsU6ATkCVE9oCJPpV4fdP2l9Y+fz2NsaMApN//JBJtrO9mIzgLkVIhMC9UtKE6DwYiXuQ07lPu3hdedijwJrzvE+O2pt/f3JV1rNl/6lYMQvis9WqxgvbAw/eedfwTwXQC2A3hEPbY5m65qHTt95fJ5H677ymjDBKxg7jKNAcR2197IjIiiYoux8cF+qyaKTb5FXal/olc7WUQLIly0RdlSIwZO98Qab7GRPZgm/UZbW9Kk5J06l+QLzhs/Kjl+K8pLFgrPlKL/sRMRnRNiFIpxLyRqScRIORenOZikP3FxjAli9IRUbEulGHpYWEqlctD55OlcvmV3msIkkrhcX+w0X0r6Td612h43MtdeavYdgINhxh1fyefd7vnGOON0YDKlGRkjFg77fLt92PYj8qVUbGtUMq6sZZNz6EK5dwzSzbtPS7BwYUNc7xoqYB2JqXdry/DyDhuPGt+0L3SqDcneHRKPGl9ePk/q/p0a1aapdy9qGV7usXGp/ZnrXZLvkT5XTp+64N+G9KBbOkRV5v7wc4XkQI/EI559HppNf7HSd7O8auHV5azHQkRERERERERERERERERERERERERERERERERERERERERERERERERERERERERERERERERERERERERERERERERERERERERERERERERERERERERERERERERERERERERERERERERERERERERERERERERERERERERERERERERERERERERERERERERENGgEDW7lmAXto0xeDxpXMMa0iKYN/3d+KQUA3nhfbMl1n/TUdd0CaNZjajR345xo5Ljj82NMq6ZR1wjr1Pa/xH+fN3lvvBZF91f+s0nbb++r3mipUegimM65c1smFnfqzvyIYTnx+T4n/P6mmrr/aBR50x/1lIpJWnQH3bT3by6iQTVE2Fg290PxhM7OuFgoxEl/FLfEJlYpq3WY4tXOdOEvanWSqJ0k6iNI84YKFWPF+15V87Pe4clds1ctKWc9pnq1ctaCnHUd+bbe7jhKYUt5WE1yww3SyWowDjBejbzaeG2FqH/BT6IQGFP28J1Q3Rx+Ky7J6sSYg1rwxf7EJba/lLS0j0xO2NyXCJaElzM1sWVfmxsfP7I/n2+1cV+fjSzKNjc8KiR9OhneT7JiHCxme5HxokizHi/RYR5qBFKC+ifhfLeLTW9OsSGxflerM9oleZfzPaXRw4sJ3rS5JHV+r677gLVq4qWjWkw8W8SeCsUpgJwKg9MAjDOQqK6fnSEQiUHiXZcKvphPuv+Z1ZKjs3vUH3b0tPS+Acac6RWnimCyCE6OYEa5QbgmHHqe1irkYfVujRisjn26evI28wRDVvPSu8+Jdh/cd5YAZ6pgtgBTAZkeWTneeV7tqP4YAzinvQJ52qtuEcED6vCks6UHxpfWbpGFqNs3lXUXsBTnRJsmj32LkehVDngzRE4R+IKoWIhEqhqHHw1Ewl/u2UsOLz6Hb9xl77qd6BcLSc8/MWAdmU2j50/QlvybQqASxWtUMDNcGwDNiSJSEStAeN0979X2cl538lvflA7eiyJRQRp+hEjqVQ+I6mNq/D2S6r0ndI58QnBN8jK+CNWRjbdMHdGGjrNg5GwA8wTyCgAWQE4EEaBWVSJrB+ryvMpRPZFD/1IFvIYClzoBygqkCglV/60C/4j3WKaKZePfufJ+1JG6CFgbxywYLwX7Bni8DmLeAMFIKIap6Kic2Cj8N+HCoqoDP1b+oRfCCtaR2zRuwTTNRfMhOFOA6VAdo2KGATqiRSLxUPhnXnMDr7vB/uaUyj+ovF0IP4avl0L7Ad2vioNGZJf3+jDglk7buvherqmrS7/1XnDL4lnHteTsZQI9S4yZCdVxChkB0WEtsY0rr7nKDWkgUQ1c+7L9CxAdKxE8e60TwBqgnFZe6z1etUtEDgh0iyh+48rpXWN09X21Xt2q2YC1bcKFraVo+Bug6ZkwMscoTlIxUztMPDJVjzAN47QSebMeal1hwHppayYvmJSDfSOsvAoOp4jIbBWd2ipxJVCF153P8HUXvmFDlcxWyhemMp6STw+o4HEoNnvFA8bLfXs71zwxD8tZ2aoT6xfPHd6RT84OU3+AnizAHIVMb20xufDnqVOEKUD/wiv5iBqSVIJWWKY68GP4HiiX/Q5A1wGyKlz31Kf3j7109SOoQTUXsDYff8VEBzvPws31Kueq4NUdNm4JN7UEihCu6OgxYP1PCsjWE957eqr+NHg9SyFvzhk5pVViFDVFWsNBPnwDWzHIwSBvLPa6UqdRfcCp3hc5+Y3GZv0JW67bnvU46YXt+tHpM2MnsxLoa0X1XIjMG9FuTbHskaao3FCI6NnAFVlBPhakDugvuV0A7vXQe0TwuDtglk143+O9qBE1EbAUi8xj09ePHpkkJ6vat6noezpsbmoIU2X1NXtzq0cMWM/aOPX3W6zrm1yGnRMZc4UHFnSYWBJ1SLQ+X3Xh+S1IhC5XCu9EHhLBHSr6Q6Nm09Qt1+/PenwUpvMW2O03r5xscphhNFpggCs6WqPhifMoJ6FCykeJ6EirWy2xQAzQ1eMfgPHfthI9sL/fbjpx4fKDaOaAFYJV59ztLW5n9+xU9CqBubzdxmP6fcpQNUQYsIC7z1kUjVv32PBWKbxJLT4UwbzViFSqo41ybwvf2FFlm4egrG4fFP9kRBbv3rLm6blYHprBNcpftW7ookVm3Yzr2jva86+Kjf2AQq/I5Yx1KUMV0bEKla22gsGBbrfaafp1n+oP9nnZPnvhqnLTBSyFyropl5waadtnAbw9EjOicW5vtYsBC1g/ZeFbAPO3BnL2wHLKxhfWbTn1a1T8t4anuH5U501PZz2mZrN16eln5Ix+WiBXhjffWY+HqEFpLhIpp7ouhXxxR16/98rzs5k2zOTmsn7sFeNMjI/CmvdDMdYI8mGPFAPW0GvmgLV+4qUzTdT6d1B9PSDjrYhtlh2nlYA10PahrKLLNNV/n955001Zj6sZbL95+thc3P7XTnGRASYZi3xlA2AzvPCIstgIZMLGEKgI9qvqZu/9X42b/8RPshhLVRYRV1pdnLMoWr9+TbjIfNSInB4bOzYsXh+Mxox0ZJoxYIXjktoLufeL6vu94JQYplBpsdBkr7vwzR6LRUlTL8AG9VieGveFk7YsfjjrsTWqXbfOuVIgHwZwRhTJMDm0I5CIqrMg3rnKFPwahd6pkv7r2ItWr6vaGKr1hTaOv/xUxHIFIPNjMXPCmpewgJ2qq9kC1ubjr3yDA64wkHe02/iEsL6v2QN9qGbFYlDSSguZOwFd3Jf23zKrc+nerMfWKPYsnTXLibnSwFxSyJs53iuS0NMn64ERNWHQKuQM+kquRz1+oYLrRcu3j7l0TfdQf+1Kk86hrl49NeXy16nKBwBZONzm23p8ubL1nWiobJ7y7pHq/Ju94EMW5ry8GPR4toUKQuUuhKsQtFolOq/bl2fkTGHihokLbpreuWQNX5VHb8t9kwuFnSPP8sAfCHBFa4uJ+isbOokoCyFq9JU8ImvaCwW5sLvPzRSJJ+74/pxbxr9rxYa6rWANnNfWczaM/cdYzOzw5dKBTchNsbC4FjVDBavSLFTM5YD5eMFE08rqwFvci8uLRdGnKRTXQd1XN0WFR8/d/J2GPeF+qBy4fc7IkpcLjfqPtbZEZ5YTD8cXHlFNaWsx6Ol3JUCvLSf40sR3rVwzVLuqDYawgnCwtfcyWPt9K2Z2mJYJzRcYrmgobZtw5ehIoy9A7D/mxE4rMlz9TqGaZUWi2Nrf98b+xwlp8YLFCxZwl9vLqNKvXDQrl3r9S6v6ldZ8dGaoWjFcEdWe3mKoZkneGPPBOGeW7rzl5NmLFp0T1U3AWnPcOyap93+al+hbAqksKOaEIA219WMvO71k5ZbIIjRvjBLWrY5YeOsT+oDljTkDxvzrqx8wV6kqK81HoPO2maPGnGFvAuRjxsrI/jLLVkS1LLz5CVOHophpTe6/Pzp3zyVr73hbvuYD1vrJV74m1zbsyxDzZ4P9uYlezIbxC86Rlvw3jeB1gMQM9EcnTOAbMZME9h82Hn/lP28f99628PvhWsRX3/+07bZZU2JtucFaCc1q27i0lKh+mNAE3sgkq+Y/R5W2/8GiRYObiQb1k22acsXvGchnBXJxzth8s+/WoqG3GLCbJl/5HomjfzTA3IHeVnS0DreuiMSMF5E/6I/9X22deNWoSpsVhqzfsmvpnDfmvPmqQN9kRFrDI8eARVQ/9NCP+ZwZ40X/4mNnzP5s5+2nTq25gLX++MvPBsxfiMHbc8bkwsJioqGkOCd69fFXfsgL/iZv7JkDzTQZr479cR1YL5k39jgj+HBq3Mc3TXnPBIasZ+1eOutiI/L5XGzfHlmJQhsGhiui+qMKlFJFS16mi5g/jnz0p0/fMWdyzQSsjRPf/Uqo+awC5+XERGXlcaU09DZOGj9fRf6s3cSnhsOZm61x6FALfeoKxo5W0Y8C+qGtpwxUstDkQuVKxH66o82e40KjZC65IqpvCpQSRXvBjBLFHxUSfGzjt6a2ZB6w1k1+7wwYfCEy8tYIYg41D+V6DRrSQ8I3TFr4CmPl85HI9LBTsOnv+kOkXx1aTTQWio+Xe5JPHV6T1ay23TZ9ikD+MorNOb3FcPhQ1iMiosHSU/TakjOtEPl0x6j2d+xcPKY9s4C1bfqCKZHxH4+MnBd+zdscVYFsGv/kyTD2BsDMDOVdVq6GPmTljBkNYz7aG6efb9Y3UNtumzk659q/AcF54X0kwxVRYxFAQiVLBDmo+S7isefr4smFqgesFRMvOb6U2o9EkE+GYMUKAlXDpinvPUFj+bqIzBTA8JVXHaEynRMz0kKu2Dj5ykt00aIh66FXi3TZ3DjS/Ndh9fXWInJcBUHUsLTSDl0K1pjv7Mi1vfZoP89RXSTvxjlRm7S8U9R8pCnfylImNk698hQg/ZyIOcsA3C1YZWG9kRiZKIIvb/jG2nkL0BzNSEOH9t1Pl/7eAucZkQKPUCVqDnFs2iLJ//OuW2ZfULWANXXSuHeLMR/NGzs8nK9BNNTCyQDw/gpRc3kkInzVVV+oFgoEkdipYvSL/2ecPQUNbsvi1xYS7y80xnzAGNMWLnd87RE1h9Qp4kheZYx8cPfS2fOGPGBtmHzlOTDmQy0mmhl2bhFVg/d+PiDvLpgoHyoplG0Lh4LEbzCx+eP1E66acuiPGrKYXYh7z1I1HyvkzUivnJAmaiYamv8NbJ0+HyJXPX7dnJFDFrC2Trx0lAj+TETOCpUrXm6oGjZMXnCOAu9vNfFJfZryQa8B4c2VMfiAjf0ly/Ch+Dk9+xrGnqWzZqngD9pa7Jk8/oaoOZVT1fZWW1DI/HFtePeQBKxwEU1s/sMi8toWseJYvaIq0AULrEj8CTHm9YdagFANCDs3W8WGTQbvGzW560I0IDH2CjG4vJw0XHYkopexs7C336OQM8cbkQ9uX3LqaYMasBZjge0Yf3AGYD5iIKN5o6NqCNXZDQ/aPxHg9XkxwjYgtde+YbjJzTPGXLlyzAXj0UB23TrnSg+5tJCzMXcMElHqKqdDnxzlo3/UxQtygxawXjkex8Wx+ZKIjKuct8XHmqrQTHTjxAUzrcqfRMaMZ6ivTX0+CesU3trWMvxTaBDbbz59rAAfLuRkTqnMqikRAeGNVmRNCxRn78qv+aPt157edswBa+Wsj7bnY3uBgZwrQMx1V1QVp68viI3/HpDxykXtNSusxYyNHQ7g7U9Nevfb0QBMpH8DyBneC99MEtEzwpmjIjLMKj4lHTodxxqwCl37Z3mRP7MieVauqBpWYkFu84H0TRANN+yIU4O1TbXSS/8Ua/XDWyYvOOqux1nTRTC7lp5+hhV5RxTJsCRl9YqInnX4vb6xOCkC3r395uljcbQBa/30BcON6JvbTW42b3JULW0ToukKfCKCaW3Ivf8NWMXKiw07Cc9KNLpAcU6EOrRuxox2GP00FMeH1x3fUBLRC6kslRJcZaXwGhx1BSuJ3gjI5Ym6l/zPiAbL2hlvy4vFGwoSn88jmOrHoTdgI42RT3ROmDgCdUYXIRoxvOUMgVxpDHKVBa1ERC9SyRrREU0SYy7duXjWDLzcgLVx+CUjRHDBqKjwirLy4C2qjlz5uHlq5HIe4FxfwvNlYaLIyDlF6BnLMDdUtOrG/rmzJkLNh4RHMBHREejp96GKdanN2ze8/ApWR+GdUH1Tjy+HX3GmhqrCe/e6GPIWnhJQp13ew44Eaz4+esr0yagjZehJAr08/Jx7KojoSHYVDm+LRqng7L23nHb8EQesSmdmkbe329wp3B5P1bL++CvfIMa+JRLD9S91qHIAPSA5Yy5WF52KOrHrB6fPNBovyMemKQ6vJqLBUQxtXETeorFcesQB67jje88FcBLvclRNVuTNUD2X1av6FoXDuwyu3Hz8FUfc8Tgjlcq8RH4WFFemXAlBRC9DmioKsZmiDm/UxZMLRxSwBLoAghklLm6nKtk4dcF4hZ/bYXI57litb6HqLYJ3ejWvQG3TPXe8ZpionDm8zQ7z7MpARC+zam9NaPAup+7Jj3zrSwas0Ah+05T3TAD0rILEbbzRUbV4Zy9TldkJeJdrhLVYx5mWViP6qrBZBjXMJ8U3esWbE+4aJKKjnCZUyAyoVNZwvkQFa4ERTReKYAx3cVE1Gch5IjKN04ONoVdDdyy8XtoLr0cNE+BMEczjgc5EdDScBzraTB6CM0Pj0VCoesGAtXxCf96ruQgqw52ykkDV0Tn+3VNhZEabRJXt/tQo04TyWm/xoluYs7Zl8azjAD15ZEcknlsHiegoldNwhA4KNtd+IRYveCZXPfOTkLpGadtUEbwmMobrYKhqhzqXrL4fqmM5PdhY04TtJobAnPjUuPkveZxEVlpy9jIB5vTzQGciOsbF7oCOFu9/f1Pvg/H/CFhPnnxxOyITdg/GPFyXqudqVYPzIDguZRWhoYTpXlHMRJx/M2qQGD1LRaazazsRHYuwAdlaE4uY2S1twyf8zynCvtYOiFwGkSi8+yQaaqFqumXKO6cZYEYs1vJ111gSVajoDGPkjagxG781dQRUTi7kTc7xJDAiOkaVhVeK1rigb9x+7eltvxWwWkx5GASvC21suPqKqqFzwocK0NzZKtLBR7zxeHi0SBQuNCejxrSN6DhLBGN5RAURDQbvQ4lArfc4T4b79mcC1krMysHZUwtiC7zgUPV0tzrFm0Rhuci48YQ6eAQJ04Tj1k+64nTUELHyBlWM4PQgEQ2GQ4WpCMC53rqWZwJW29Q5E2HsOQmnBqmKnI3zCjkTAstJ6cZUuaaIjBAjYX1nLZknwDBODxLRoFDAGJH2gp0Yp3bMMwFLytFxUDMnLG7njY6qxdmko8XYUwUhYPGV14gqLfgUw1T0VagRevc5kcC8oiVnYlZOiWgwJZUdhZi38ZZXjKgELM3pcIXO5E2OquXRce9tU/Wv5mkBjS300wtv6kTNq1EDdNncePfBfWepasTm7UQ0mMJG+MqRW8a8qjUxoysBy3jf0WbiyawhULW0tSfHCWQuH/EmWIclEs43PW7V6PnPbF/Oyq4N/flK93Ygx7OdiWiwhZlAgZ6h+XS0eXrSeyZ7YHpYjEpULVLS4YA5pbLvgg97Q6s8v6K5Qj538rK5c59pwpeFfKuNVTBb2e+PiIZA5Y2bYlYMGWHSSF8DyPSUh+xSFeUQF1T1eD7ojW9gnZNEXsysCcg2YPUZGwkwFVDLvrZENBTaCrYVVjuMqp8MyEhWEaiqItM6cKOj5iCRETm1uB+ZBqyOXGrCG0oANstxEFHjsja0p/FhDZaMF8FwNhelalLnRoy0LW0M9o2vUr/SEGh0WtLfmWnASp1pjawcb40IK1hENBRCfz3nZZKBypmqODF0XSaqhkU4J1KPsZyWbiYqUAwzml0vY1UYLSeTHVe3E9EQCm/eVHGcUdEUwnRF1fOHUyZ1qNGx7EHUPL2wIBKrwWn52GZXwfrh3Ja0bCaFn7JySkRDuZPQiD0uMsDrRRGxHxFVi5dehRZYMm0iJmxcho4w3j57wHy1FWNF1Oe5/IqIqkAjC9MWOjRU3mUSVUXLBAFO4muuuRiIcRYuq6+/M98zLEZ0Gq90RDSUnA9Vcp1qwk2ONzqqJu9MB1RG8UbXXCrPd5Jk1mzUic+ryPisvj4RNdEaLOjI7Mr11LRU1EOyq2RQdtTICRun/n5LJl/bSehqm2bxtYmouYjAMWAR0ZB7plopaMmV87zuEFHD44WOiKpIODNMRE2BAYuIiIhokDFgEREREQ0yBiwiIiKiQcaARUTNQzSzo3qIqIkoxPBq05x8OBuOqImoN6E9Dds0EFEViAuNRsPRp9zZ02QisA8VNZcIUnZe9mY9DiJqbCKV8wi7jEIOAOhlOaOJiIRO/gfLuVE8D5Caxvg47jFwa7IeBxE1tnDiqjGyLazBelwVW22IXNTwwhMuirKBe+KEzZs4XUJNRZzarMdARI1PENZgeX8Q0D4Jv6QmoZqq7wLGcmqYmoZcvLwvzWFd5edZD4aIGpaIwKtujxRYb4AcA1ZzCM+zirhuSZ8S3MrzAKm5RG5X5GP4sPKUiGgISKU/g3YbEayDYCf7NTS+8K7dDexnOHDG5lvD2juipmKcLabOd3rlNloiGhqxFViR7QbqNqlij2HRvOGF5zj1LlHF5qzHQpSFpNyWeK8PAShz2SkRDYX+kgdUNpv2/tLj6j0XuTfJvLAKuo3iyazHQpSFll5JAHkyLEMM3w9ERIMpXFZKZd2Qiu82Y/be1mms2co1WI2vUqVU9GiYFiZqQn15k6jgSRWkzFdENNgGriu6Tp0/WFl65T32HHSljZwmbGx2YBp4v9d0edZjIcrC8WMeSLymqwUMWEQ0uMIdNixsV6NPqUu6BgIW3F5AHmbBvLHFYWuDSNeJWxeHNShETUfORepN6wp46Qn7PVjFIqJBI6HBKGC8PmIjs7sSsKRsdov6R0PyYshqTOG57fJlr17XZz0WoixNunh5nxd9MnFaDt8XRESDxaUKmGjFmEvXdFcC1rW7Tt7tRR88tIWfGlAEE57dTQpwepAI+GWYLg9HWhARHavwVs17eOf92mKabg+/V7m8XI2rfX9i1zjvd4XNhcf8lajmxOGpVmwyapZlPRairKnILz1wwFpWsIjo2B0qhqde9Scd7a4v/OKZ92+j80lJgV9D4ThR2JhPvqjfmvTvXZX1WIiytru4/VGB3894RUSDQUzlnJRUVH4+LBrXG37v2QJ5H3oE/k4IElbNG0vYHdrtyk5F1s7c9+OurMdDlLXZC3f3QM3Knn5XtIYxi4iOzaHc5NCfPCjn3lN8zu8B43Yv6TVF/BSKrjBHyEtOg+0eBB6Al4ezHgtRrUg9boNgRS7m1Y6Ijl54k5Y4DTuTl/aUivsO//5zi1Uqed+pXu9z0H7urmkcBYnCHOGv+rXvwazHQlQrdnbv/LmIbGzND5zMmvV4iKg+RTZcQbTHpf7Oh9o2J4d//7dmA4/fijLgloqiK+w6o/oXZoX3u2LJeX10VufSvVmPh6hWvPJ9O3uhunz3waTb8h0lER3l+mavIV9hm/OlHy9YAH/4z56XohZ7ifSnXrDVqXKasAFEoass8HNrU54/SPQ8Bv7XAtzXkuc0IRG9fGEncpJqtwIPTlz41O6BW+4LBCyB6LTNS3YAem+q7gCrWPVPoTAqN7cU8zx/kOh50pI+pir3JwnfUBLRyxdbgXqsU++XPv/PXnAe0MAvAfBkNLA4mupUqFom3m9Rp7+esPN7lW2jRPSscQtX9Xjn7ysmfpXhbkIiepnTg0niw48Pj3vnEz99/p+/YII6YctN96Xwy/s0VR4AXZ8OPW8eBl8xcdfOrMdDVKvUlZ8SyE8qC1WJiI5QLhKkTtd61RfcQPaiJapIcIuqv6dFeNWpy5b9lclB7BQ1N0zd8qP9WY8zczyKAAAgAElEQVSJqFZNWLh2o6ouLZZ9KeuxEFH9aC/YsMD97mJ5/80vK2CdsOWmuyBydwrPxe51xoapXdUeeH/txmkzdmc9HqJa55w8CcU1kRVwppCIfpc4Euw9mKy3grumLNz6TO+r53rJRVYicm/Ju4daQh8lqpvqVfhQYIdJ3DVvuudzLusxEdW68e98fLdX980k9du8D0cVZj0iIqpl4c2YANeVSv2/eLH/5iUDlrfJw4Be3+dTNuGrE7FYlLw7oKq3nbBzycawMzTrMRHVurC1eneCcE7nzSIohYsnEdELMQbo6/dbAf/T0JrhqALWiRuWHFRn/1vV32U5UVjzKrcEreSpB8S6f8p6PET15LQFC9IU5hqv2OicVnYIERE9V7gsOKdODb6eQJ7CS/idfRimnbR1vWjyJafe83pT20JbjaJ3G43q7QP9zIjoSIlc7Sdc8tgTqfqvOtWnQ38bIqLndW33CnnEq//a+EtW7jymgCX33JPmnVnmvf+2qiasZNXw2iutrJv7UaHkvpP1eIjq1SO5lV9Tj9XhYsoqFhEdFt50hSUE4vH5sXHxAH6HI+okOmHH4j1Jf+mfFdgetv8fmoyiGtIqEYpwd4u4peN2L+nJejxE9eqCC1BSlS+VyvpQRyubLRMRKrsGk0R7VP11aSt+bi546ne2dTmiq0dYKD1z39I1Kv6zCt3VKrbSJZwPeu00Fe3xyU4DfGPjtB33ZD0eono3bv7jP1Ho97t63J5czDeURM3MSKWhaOgv+Whfuf/LE85//IhORjnit2dh6nHalh03eOD2Pp8U88JuMbUgXPrjypFG+rUo7f/xuffck7LESHTsYovve+hN5UTZG4uoieVjgfe62nt/zdQF65840v/vZdW/BfekDub/98DPEvXgeqzsK1fho+TTu1On/zW5c+neQ3/E6iLRMRpx4YoNqZS/o6o/4zmFRM0brvpKfp+q3DT20dE3vJz/92UvMDhpy3UPi+IbCl3GpVjZGWgmqnCqmzQtffSkzpueznA4RA1pwvK1y42Xf05T7awses96QERUNWGezvlw9Jy/2WnpO3J1ZYboyP//o/mi07besNQ792+J004eBp1dSwYP3aqqnzphu12X0TCIGppcDb8333K/iv+891qszMYTUVMwRpAm/ufi3XcnzF+z6WX//0f7hSUq3QZ1X6j8/Gg/CR2VnBiU1e0zXq4LYVewhMfhEA2RmRc82OWL/joPfM57dHPRO1Fjk0PVq1Lql0fQz4ydv/reo/k8Rx2wpm2+9YDm5Ean5U97hqyqyYtF2btd6vG11raWv6/eVyZqXuMWrurp811fg9elpbIWw7oMImo8EpYCGIRF7dtT7/9m+CUrHznaz3VMBe8TN96408Xpder93+uhygrbNwydGIKiTxMFrk3T9F/GrPlm9xB+OSJ6jmnzNx9wZff5cD5rqex7W3IMWUSNdsZgaMngnG5K4D7Zu6X0i/DLo/58xzqgGRtu2SUl9+8CLCmp8wXh+RJDIbRiSAbi6/Xq0v+auWPJ7tC4fUi+GBG9oHELVz1lkH5JBDcVi76PlSyixllvZQRInV8Hj3+YcMmqJTM/+bubib7k5xyMgU3bvWSH+PTzIWQVvesJC7BpcMihVgxhzZVX/YGk5gvTO5esGfgztmMgqiZVyKhLVj+h3n1RBDeWEt8f8T0lUV0zh3YIpymeTL3+25j5K64ZlM+LQTJl6+KVcYKPe9WvJ973sEfWIJ0vGE7uhu5XxbfK+7s/fMKO61YNwqcmoqP5npSQsSCjL121quzLfweP76dOy2zhQFSfpDIPJEhTv9GrfmnC/JX/Nlife1BLTZO237An7TOfU3FfSOE5f3WMrJhKuIL31057Ov3MKT237xmcZ4qIjtbhynHYtu0i9xeq+gPvNeHB0ET1yavvdAafHXvpiq8P5ucd9Lm8mfuu68on5j/V4X85rztYyTo67RKF3YJbFfhcsvXAZ9iKgaj2jLtw1Y7Y4qMQ/WPntauQ5/IIonpZ0B5HAk31bgtcNP7iFdcP+tfAEAiVrI5i7/Ve3R+l6tfGMIgGvhSPcPkdQiBtEYsuX75f1X+mq2S+MRM/PqaFdkQ0dEZcuGI//LDrFPhAX9Gtai+YysWbiGpTPmegHkgS/Q8x5hMjL17x8FB8nSG7DIzZe1v3idtO/TFUP1mGX5KoT1tNzCr6i5BDPa6carnPJ9dZYNF+17v0lTu/d0SndhNRdsZcel/3mEm5per8Z3r63B3h9wo5piyiWmIt0FYwKJXcLuexyBvz5VGXPHbEhze/XBGGkOBqj6348cap794B1e19Prk0FjMl/Fk4LJoGhApfSJ4ln66B6o9cgm9O33njkD3pRDT4ZN7yBMDtu287bWfqzBbv3fltBTutWFI4z+I9UZbC9H1f0SU9zj0E8dft3Z1+99QPrBnSXpJDGrAOm7b5+kdXj7r4s/m21vVl1atE5eScMR2JhuOKm/fCE9ovhMpVoq6okMfV45v7fM935+28vS/rsRHR0Rlz8RMPrVw8a/XYnH2yty/9gEJmRNa0hGud5/tKoqqyRioFjL6i3+EV93jvvzph/hO/qMbXrkrACk7de1s39uJfN41/z8987D5VVlyuQKsJy46acHFWCFde1Sl0r8LfFXn/v6dsW/JU1uMiomM3e+GqHgBf2fXDU+8QF/1f5/3ZAEaJ8LgLomoIoSr0VHHe90OxS7z8Xbord8OkDy+vWgGj6osEQh+nfWnPJ53zV0L1YVVNBuo4zeXQsUL3eK9/OO3pHe+bspXhiqjRjL1o9boxl664DCJ/BpWHvYc24eWOKJPO7KraC4/v9qTJ60bPf/wb1QxXlTEgA/O23943fbi7s5TiAtX0f3n1qwsSVY6DaVThmhr+fuHv6dU/WkyTq0yfv2r/+HU/FdyTZj0+Iho6+zZMvMnmZIH36SfV68rh7bayRZyIBk/YvRsWsSvQn5Td9433l5ly7i9OuOzJHchA1aYIn09WLSkD2LN61MVL4jY81pfKW9XognYTnxEuO0V1ockmGqHtQghVZfVhEftjibrr8sbe5aS8esreJf3Ym/UIiWiozfxkpdXKpvV3zr12WE/5vn3709cai3e3tdqzwvWuv+y5PovoKITvnyiSyiL2g71ub1evv8WI3h7F7tGRfbJdFi4PWQNNFbCetzZr+daJV20q+vKjfVp+jQrmAXJem43zXrUSTkJlvZ7WVw1UqywOuPLBHi392ivut2If7EZ52ewtS/ZlPUYiqr4Tz1t+EMDyZV+bsHrq6JGre/pwlgjeAsEbjuuIbF/RI0kV3HRI9NLCGaD5nFT6WfUW/dZymvzMq9zTktpfD3/Xo+tQAzIPWIdN7vxuqOX8twI/3jB5wauN2If7fDpPVWdCZFq7iW1o7eDCR42FLTkUqiIJq8kE/Zp65/WpoqSbVPBr9fLja7fesOxqgHuIiAjzPry9D9j+cwA/333LnPvF4rx93ekrBXKiEcwI78adU6SeOw+JDi9aDzsCIxt+LiFUdZdTv0ZEV0JlWWLd7RMvXL0ZNaRmAtZvnfO1dcmDAB7cNOW905xPzjNW3tLtyrONSLuqjozFtocHO1S3QtSqdrOHgUOYB5bmG5HQHBQpfH/qKxN+u1R0vSp+GkHvmPr0jZ1VHBoR1Zkx81fcBeCuzUtPntiK/MVOcGFf0U0FMBoix8VWcpXrnQ+7oljdouYgMvAR7rHhx9QpEucPpA4HVLELHg96SW8df8nqn6FG1VzAeq4TtnxvI4BrwseayQsm5VTeqpDfS4DzoWiFiBHVSEWigVadz8aswQxcz1+KGq5zUJ9CJIX3oZq/G9CHxcnthbzeMX7jjTsH8csTUROYeuma8Gbsq+Fj5+JZMySHi0Xt2xLVWRCMgFZa2kQiEorlz9Lma3NDjUee+deAULxFpYjrU4WUBNhlFHeqMz/f1qs/feX7Hq/5U05qOmA918ytSzqBRd8BVl27ZXjPMG0b8SqV9Ewn5kxRnRcZM9H91v8xcMk5lgvP4ef6cBuJsMcxDdlK/W4A94n6h8TLA7bbPTqla8k+xSIjuJrXOiI6JmMXrFqPz+HLuFr/5cDdrxyedumrVPQtAszzitdGIh0DbykHqveHr1Wh7w9RPYYqOfSvcL+1kaBcck954DdG8EtfTu4ZfdnC9VhytXzuCejVV9fHcpu6CVgD5alD4eUg9q+ctODeQhHLoPINZzTXV46HRSi9WtTM9MAEMThRVMZ7wejjTG5keDZCHA4l9he6Bh2e7gtrqUKI6nblogBrFegT6FOiWJuKX2sh6zV2u6C2pOKL/S3on72tsiNy4GggIqJjvd7JodUP4cp0Lg6sXDzrV5Pi+OE4TloSFxX6SunEyJgZxshMFT8TkKlQ6RDg5GHtVqwATgeWUbC8RbW2jupwn6q93enT8BqOq9kpkMe9+h0KrIkQP1kwputgv5TdcN83/qLVfSL1V7yom4D1fLMH2jyEj7Arp2LlmAWbO1pkmBXT4lzaESHX4sW1HECxXUVUEx0DMeMhmh84S/tZBuj3is0mQo8LUctI0XjfXXJwYlx3ey7flZTT7ilbl/Rn8hcmoqY1e+Gqw9e7wzbuXDzrMbWFDrHlYVFOWp2TGM4P6+lLY4h47/0Y72WSGM0Zlbq7OVFj8RAL1YM2ktUO3sJZ0cjtNx6JdaaocAfytqV/R3Swe+YFK0Nbk7pXtwHrhczevSQcTxE+XtT6kQuG5wstkQ/P53P09peSSssIIqI6MG7gOJ7wsf3F/pv1i+cOz0e9UXtqGLAoU70tBQN09o29KOygbQ4NFbCOxIn7lxzE/qxHQUQ09E5cWOm7RUQZaNyzaYiIiIgywoBFRERENMgYsIiIiIgGGQMWERER0SBjwCIiIiIaZAxYRERERIOMAYuIiIhokDFgEREREQ0yBiwiIiKiQcaARURERDTIGLCIiIiIBhkDFhEREdEgY8AiIiIiGmQMWERERESDjAGLiIiIaJAxYBERERENMgYsIiIiokHGgEVEREQ0yBiwiIiIiBiwiIiIiGobK1hEREREg4wBi4iIiGiQMWARERERDTIGLCIiIqJBxoBFRERENMgYsIiIiIgGGQMWERER0SBjwCIiIiIaZNFgf0IiolqkCrPn1pPb8rlCS2+/l7aCUTShyt89jr03ZefzOX+wJ5V2Kbq0K+/Hje5L5enhfsnI5X7hQrisx0pUzxiwiKgpbFt62qQWYz9TSv1HohhSSn1TBqw4B1PS5CC8bEZ/sqsjgnif2xYPl859SWGNjE22vxFzOoEVK7IeK1E9Y8AioiaiNjLGiFQqWoIm5aHDveppgJwCrawVSSHqVCWB1dQq/J7b5nR7xZNGZFma6joXuV9PunjVlqzHTlQvGLCIqImId15xKGA1NSNiRWDDzwUmFx6Tykf4ZyB6ji8mOhXAa6yVngjR/l23ztkqkCcU7oEWSR4YdvHaPVn/PYhqFQMWEVETCgHz2ZD5wmkzMpIzBuOswbjIGpQTP6+U6tmi5ryS5jfsuXXOCjGyvCs9+Jtp8zcfqOb4iWodAxYREb2gUO1zHkgGflWpbMVWRsWRGRVbec3BnnQ+FA+22WG/2nPracug8ZOuXN4ybuGqHj6k1OwYsIiI6IiEilfqtPLRD8BGko+tnN1WsGfvO5j2K9wPNWd/tu222fdGRb+VQYuaGftgERHRUfEeKCWKfV0OYqSQy5mFLbFck4NcL3m5fM/NcybrIt5nqDkxYBER0aBUt5I0VLfCL+SVRux/+Uju3H3G7I9vvn3KSD7E1GwYsIiIaHBvLAZiTWU34kwj5u9b/bA79t4660N8mKmZcA0WERENejXLhdb5of9DLO3lxLxWIWN3LZ1zNqzeMPailXfwIadGx4BFRERDFrTCGi0jQC420xOH6an3J+28dc5shX5n/CUrd/Khp0bFgEVEREPKHwpaoc1DR4s9s7voZoli9M5bZl2/O8Gq2QtXlfkUUKPhGiwiIqpaRau36BFb0zGsNfpzK9G/jouj81cvPbmDTwE1GgYsIiKqKucUPf0ehYI5G+K/MQbxp1YunpXj00CNhAGLiIgyUSx5GGvGqJg/H5u3N279wSmj+FRQo2DAIiKiTBw+AdEatAvwtrzNfXfHLXPm8OmgRsCARUREmR86ba0pAHqeEXxt582z3sanhOodAxYREWVeyfJeEVmJhrXZ19ko+uvdt5x2EZ8WqmcMWEREVBOcH9hl2N5qz4axf7X3ltPOz3pMREeLAYuIiGqslYNDa968To39vztvOe2sRTwwmuoQAxYREdVcyComHjbCK42Yb3/0zNOmKUMW1RkGLCIiqs3F7z7cpWSqSe03d75q2pisx0T0cjBgERFRzR6xE44xBPBai45v7rp57oTw+6rht4lqGwMWERHVNGsqIesCseVP9Pz3KRNEKhsPGbKopjFgERFRTfMeyMUSDov+YH8Sz1/7lRn55/QpJapJDFhERFTzklTR0WZHQ/G+UdNb3pz1eIh+FwYsIiKqC919Hm0t9kzn5Q/2/PCkSVmPh+ilRC/5p0RERDWklFRWuF+krqULwAeyHg/Ri2EFi4iI6obzinzOtAD4vZ23nX5V1uMhejEMWEREVFfSVGGMTDOKP1373RnDsh4P0QthwCIiorrrjxXZyq7CU0d0FP54493nhIoWUU1hwCIiorqTOg19GmIYfKRlz64Tsx4P0fMxYBERUd0JTbCMQHLWTIwis7Drtrmjsx4T0XMxYBERUd2eVxgqWTD2L0uanJ71eIieiwGLiIjqWiFvch64eMf350zPeixEhzFgERFRXUtSDwN9rzE6L+uxEB3GgEVERHXNeYQO76PUyrm7l548MevxEAUMWERE1BCtG4zgHJjcm7IeC1HAgEVERA1xhE5k5FRVPSvrsRAFDFhERFT3VBWtLRYGctqOxXPmZD0eIgYsIiJqCMXEh9YNp5iczM96LEQMWERE1DBnFMY5M16Mvi7rsRAxYBERUcM0HrUCiGL67h++4k2LFvEeR9lhwCIioobaTQjBKPX+/NNOWyBZj4eaFwMWERE1DOcVHhghirMXLlzish4PNS8GLCIiaqgKVs4aK4KTdtw6e1zW46HmxYBFRESNQ8MMYWWasC0GztHFkwtZD4maEwMWERE1XBVLVSKv8uauke2tWY+HmhMDFhERNRSvCoFaCE62aVsu6/FQc2LAIiKihmvXAJEIgrO6evsYsCgTDFhERNRwRIBcZOPIRLPuvhtR1uOh5sOARUREDck7hRp5xdzuuSOyHgs1HwYsIiJqSFrZUqgTklyROwmp6hiwiIio8YR1WJVuDTIqLeXyWQ+Hmg/npYmIqFHzVfjZq6wpHZfpYKgpsYJFRESNm7JU2kSNzXoo1HwYsIiIqGHzVSFvpqSiw7IeCzUfBiwiImpYrXkJ67BYwaKqY8AiIqKGPjaHU4SUBQYsIiJqWN4D6v2YyoZCoipiwCIiooY+l9AYTN523cxRWY+FmgsDFhERNTYvvi2OfNbDoObCgEVEREQ0yBiwiIiIiAYZAxYRERHRIGPAIqKqEYU1vo+7uajKxJok5f2OqoovOKo6US/h/Ao+9M3Hwuwdv7O1nNkAhK+7ZiOVK40e6O7p7st6LNRcGLCo+i86a1IVk/Chbx6H07Sz8qjgmkye+5Yo8grJLtxRJqyR8Lp7ctKHtzNgUVUxYFHVlZ3bBdWNln3/mo51yOzIEtMf9cD7J7P6+pQdgedROVR1DFhUdW0+Kaqilw99c8k6UI8sJimc7850EJRJBSscRsiHnqqNAYuqLl/yZQP0y8DiCGpwBgKn6pz6R8qJy2xqeJM76GBMJdjzldccwiVmT3f6tIXuz3os1HwYsKjqxuy9rVutbIt4m2saAvUK7XLGZdZNe9r7Nxd9pBsNr3pNRru9B9d8UtXxUkOZMIpdfZry0W8eXmG2lyO4LAfRWpAdzmmvapajoCrb6VRKfNSp2hiwKBvqSmWf7ubD3/jCdJyKJBD/CIYh2118vZXlOE/7cDod5wkbmhz+UHnciT+Q9Xio+TBgUSYSsX2qspX3uMYX1toZRareb2vrbc20bNnVk3dedYsIUr72miRhWd0OFNiigaqOAYsykSLZJ6LLw+Ye3uiaoYKF1Hi36oTNfZmuhcm19ZRE8AC8JhJ2l1FDq1xfSrp2YrG/K+uxUPNhwKJMdCRRt6is5cPfHLsIQ8Y6YcKolYIlma7BGj28mKjDk5XAl+VAqCqsFZStXyMLV7HBLFUdrzGUiYnbb9gL1eXcSdj44aqoaerVr5Tl2XRw/y1v2lxytvSAQBx3EzausL7Oe/WlxK3NOcvqFWWCAYsyUTmM0Ojmorp93NDVuOzASvIugTyEGiACHV9au0WBreVUD51TR43mUI+9VBW/KTvLHYSUCQYsykw+kh6oPgwop2saunu7HFD4+1AjZCEc1D+qHj2sYjWmgebtSK3glzLcc4E7ZYIBizLT7/tLRvEbaNjRxVJCw66/Ut3bd9Dfixoi8A8J9GDEhe4NKRSwRKToyuk9X73v8f6sx0PNiQGLMjSiKCq/CT2SeGxO4wmRuRT6iio6Z3ct2YdaktplXqXLMGA1ZLhKnUIVu8dctnD91Vcjs9MDqLkxYFFmpm3+TnFKZ/oTVez1qqxhNZhYDJzXLQL8GjVm9GUrHghrAL3nOqxGPNzZqx7w3v9syZKrWRqnzDBgUaY+h1lhIeo9Xn23Eb4cG0kcLi+im8ThftQgUfymVPY7Ist7cCOpPJ+KA0Zw14IFrF5RdnhHo4xdDQN/qwL7Y9awGm6qRlXXTt1+w69Qg5xP71LIulzMgNVwrztgV8nkfxJ2jWY9HmpeDFiUqasB397W9zMATztwmrBRhP5mPS7Z5RWPokaNSVbfB8Vq5zhN2CgiC/SXXLcoHpx08XLuHqRMMWBR5sasua3bAw+X1HVbviQbQouJQlz+Zepdza2/+u12DfpYf8nvCut2qP7lYxPKV2sE6a1Zj4WIAYtqhP5QIGtyXIfVEMLCOnj59cmdS2q2ghWoSFgfdm/lxkz1f+YlAK/yxOhLV4eqOFGmeFWhmnDi0zfeKV5XGrbWbojpwT6XPpGYdBVq3NhLH39EjP7CGC7VqXdRJOgt+q1itCZODSBiwKKaYYBf9vhkbU5s1kOhY1B5/gyu9Wnvw/XwQBrFiq6e9AHuJqxvhbwJBxD+zJr09qzHQhQwYFENSW/1Hne1mSjrgdDRT9Fory9vtup/fsr22/fUwwM5cmL+IWPw7bYWXg7rVah8H+x1e73KPcdduHpz1uMhCnhFoZoxZeuSfQJ/7760tO3QIcFUR8JxR5GIqMo3IWY96oTMW94nivsPdKerVcOyrKxHRC9Xa6heKX6QaFIzZ14SMWBRTdHUhK3z32+TOOuh0MsQMomHaur9dg/3g6lbrt9fTw+gj1s3KfD1fCw8takOdfen/XD6o8nvfHJt1mMhOowBi2rK9B3Xb4bi1i5X3sNCQv2otNdQLSn8D6zd+RTqzOgLHuyKjLu5nOo655RVrDoRqo3WCtTrj6xPa3rHKjUfBiyqOYlLVkL9v4d9XQxZta/yHEllF95WVf+1EzaPTVCHOovYkUK+CMgBLnivD6EbSJr6XvX+GyO9bM96PETPxYBFNWfmjiW7ndcbvPo93Dxf+yIxSL3uhMr3Tty6ZIVgiUMdmr1wVXlHXr8nwEbnBqojVLsqzWFV+0VxXY8r3C8LV5WzHhPRczFgUU2KjX/aeHwKQE+4gVNtChnEQOBFHzdbky+gzr3y/Md7xbu/9l7XVLb9U00K4VdE4T1297jkcycuXH4w6zERPR+vIFSTpmxd0t9f7LvVqd6bel+2DFk1KbTUKKpbbqBfmYIl/WgAo+Y/8RMVvbO33/VyqrA2FXIGaYIdgP/8CZc9yalBqkkMWFSzTt17W7f48tWArucROrUntNLo8kmfcXr71C033IEGopL+KxR3F/KcJ6zFqcHeoksc9J7E7rsh6/EQvRgGLKpp07fd/BuoXN/vk10FdnivKS0Shd5DtyItL5FDq9wbxdiLVq9Tj+u7et26VjYgrSkh9KpimVf/1UkXb+/LejxEL4YBi2pemphrFLq036fecl9hTQgVxe60vN47/42pO29+Ag1I9pVv916u6e13JRMWVFPmWnKCnj63Sx2umzD/iV9kPR6il8KARTVvxs7v7UpT+bZC/ptrsbIXokbR+6IV/ze+8+Cv0KDGfGBNtzr9AaDXaugHQJkKGbeUhOdB/93sL1/Lp4NqHQMW1YWTOm+43wBfL/l0e9i1RtkIj70CiRr9/0Tb75yJH5ca+bkY/64VG5DgS06xpnKMTtYDamKVhqLAf/gkujGE36zHQ/S7MGBR3fjm09f/UFP/kRTazxtd9YXpWQ8tOY9bYpf+55St39iHJjDmspVrvBYXAtoZsj37Y2XRkgFISv5u8fIfY9/16LoqD4HoqDBgUd24GvBpW3S38f7PPbRyw2fQqo7Da99U8bjT/j8NB3OjWQh0XGntE977T6rX3blIGLKqOC0YblKq2qnAn4+65LGGXO9HjYkBi+rKzKeu6yq6npsU/n+n6roqZ+DR0IcrAVLvf20c/nrmtlu2NttDLgvh+g70/Ei9/m2x5DfkIr7uqtGOwYiEUwI2eIM/GzN/xfIh/6JEg4gFAKpLq0dd3JFvbfuygbynxdh8v7qwPoav5yEIV2FZsYP/pTj9wgnbbvwRmpgqZPets/9WxHyivWBG9xQ9X3dDIOzaDNWrNNUnU9Uvjb90xdeH4usQDSW+DaO6bUKqKl+G6I/71bm8cB/9YAsTsGEq1qn+xqfyT80ergIRaJrG31HRG3r7XV9LzBVZQ/AYV94pJYlf5+D/g+GK6hXf8VNd2zJ54Wxvor8F9F0CMdxMP3gGHkt9XMvuE9N3LP7lILwdZnwAAAfqSURBVH7quvf0HXMm5xN8zEA+LYIcX3eDGa4EzvtNxuD/jLqIlSuqXwxYVPfWHve2YXHbyI+KyD+EFzRvdscmPIYeGopX6+D0ymmdNz4ySE9VQ9n4raktHaPa3wE134VIIevxNIJQh/Zetydwn5xwyaolWY+H6FhwipDq3sx9P+7KpfgvUf/p0IiU3d6PXlSZFoSD6p3e68JNndtXDOJT1VCmvX9z0RX1J877q9RrX2y5q/VYKlehz1XidXnJ+/fvLa26dVCfLKIMsIJFDWPzlHeMLKet51kT/0vemIl+YHF21sOqG60mQp9LEgBLyvD/e+bTN63Pekz1YMvi1xbiXPdrI5Ev5iJzRkgLSco66pHK5QzUKUqpvzsV+5kJxUcfDrs2h/RJI6oCBixqOBsmXfk+EfmAGLyhRawUldfqlxIqfjmx6NPyBoXcpF5uOHHr9axcvUydt5x6Qc5EH1Tg/PaCLfQWGe5fijFAPjLoLfl9Cn+zePnu2Pkr7n25jztRrWLAooa0YfKV5xvR93mRtxUkOi5RX9kRR78tFoOyuvDQPATot2NXXDK5c+lePk5HZ/fS2fMgchWAS1tyZkrqAOf5unu+OBI4p+GxWS2iNyaxvXbC2x/bxNcdNRIGLGpYG8a/cyqi3Adh5ApRnBCJsY4h65kzBcM3fwq/V1V+473/4oxtN/486+esETx+3ZyR4zrwbqP4IICTIystIWPxvOiBtVZRWGuVaA+ARxT+mtHDVt4o5yLN+nkjGmwMWNTwNky4/K2IzCIDmRtmw5r5dX94l6WqeoHs86pfLyTFL0/YecuurMfWaLqWzppVMvYLCrxRIB1hh1yzhyxFmK+XMlJ/fWL8lyZeumpV1mMiGipNe6Oh5rJ2/IIxuch8RMX8sREzqnKpR3PuEiyrL4riLnHuH36yfcSDH8Y1YWE7DQFdvCC3K7/mj+T/tXduvVFVYRh+37X2HDoHWuiAraQtcpJDxJSgxsSmXEBITJSKApFELrzwB/gHTPwRJsQrjXphJUjiTVGkKomR0AAeOLVA0UJFWugwbWeme+/1mbWnEC4aJCbtdJj1zMzdTOabzN5Zb77D+wne9zystRddPVYMNWENawMjOEvDD3MpfM9dv05VOy6HYz5xAstRN1zr2N2EILPBqPA9RbU/q2KpaRPURW9WnAqKyk4JnlXkR6Hnf3l36dLpbQNOXM03o59uSTNbXu0hfkAU3mnKeCsni6YuerNsr5W1r5gsmREQHxsxh4p3CnlrcVHt2ByO+cYJLEfd8ceqAx1JY7oo3ENiV6OKp6YlRCDmieuzssIqQY0JUz4tYj7T1CfLcQ7apdnVjq/eKBzesqJIvEglPSB2L0l7udKMQRDKE1U6tH1WVlhlGzTG7/lXRPC5gTkmUxxqOfD7rWrH53AsFE5gOeqSE93dXsdQ22alwy4x6Kbi9rTycqHATtXVbFbL3tAeFTwoTIlvlOCcQL7TwuP/hIWfto1+M/3QW2vzR9Y4t452rtUIXhGgC+COhgTbtSJKM9FUHWrZKNRmq2Z8QRCYy0KcAHA8iOn+p189e7vaMTocC40TWI66Z7hl7yYTj+2B4GUC60GsSdOjD4NAbK/W4j/0PBIaKsrCBWLGQV4wIme8UJ1sv3nxCDHg+qwWGSNHNrfFqd+goAtaNlK4Jp1SSd8KlFBqolfLCkNPV/rK/MDYBeyDEDkjBr+UgruH2/eN3Kl2jA5HtXACy+GYZSTb01xuTO4m+ZYCNgqZAWRZjFqJSOQJv1jElr1xrdGCLQPamEKRPIBJobkmwEkD9dXaP78YqHacjv/m9KHWVMfy3E6tZV9IvkQwBUjO0yoWTXyaSglRFssy5tmFzHYq0g+MbVQvCHiDIqdCpb5+6vVzx6odp8OxGHACy+GYg8ttPWs8Jt+kcD+BdUJ6EImR9O7fNAt94D38vQKEFAS0hgvghBjpVYrHjYr1PXP9E9dAXKOM9q1egVLmNQ/mIKCeA8QukdYAPWXVdGSxsfBxWVEVTUBGTwSUaD2CnQo8SkpfolzqW7JvyJUBHY6HcALL4ZgDAdjf/YHecPFKosxyh4nrHRTuJNiV0l7jjJhI2lTEzvzmte6bgtqXIlG2Z5vwFIAfIP7Psbz/40RbrLD5PEKi1+0FqmGsWu7v79arhoe9ZLqxVcWkmxo7KNiebtAr7Y5DYyIfs1k/swXIVtnys0KlbBmaS7avKgRPKZn5tjkejnOyM8DeXkObTHU4HA9wAsvheAyxNfbsu5mpYjkjDBKauj0Mw22A3gpIJ8D1WW3npiKvn6hB/v5JY53j7ePRN1pFQM0mKKLdgBY7AXjXlO3HL0AwKMSQJ8FAIDzvU8YagGKoU9MuY/WEWzw0mozRYTIGL4dAXoBSWynSCcGmdEqnbHO5XTtTcYu3Vx6jZvnHEV9Rc7qqZEU1+WACcLpkUPblKiCDhAwZyBmlvN9KQTC6RCeLUxN+sfWg87FyOB6FE1gOx//gYuvbuUQcOWOQA6VRGZOFqBZo1QKRZSCbKobpso5AAuScx52I2DPNlvrGhay4qQv+UmBRJLweaDVKg3sQ5hH387EZ3G4f6S26P60+uXbk+aaUUjlBkIvBXmOSNTA5QK8UyjIaNlOJEUGHgEvJuTed20wZras6eQ/gDQiszLoJSIHA3wpqOKApSGjyceXlAymPLe+5VFj4X+xwoGb5Fz89LF8vW4yCAAAAAElFTkSuQmCC;" parent="1" vertex="1">
          <mxGeometry x="320" y="465" width="80" height="80" as="geometry" />
        </mxCell>
        <mxCell id="d3FJ1h9GNW7J8V9dyUp9-6" value="" style="sketch=0;points=[[0,0,0],[0.25,0,0],[0.5,0,0],[0.75,0,0],[1,0,0],[0,1,0],[0.25,1,0],[0.5,1,0],[0.75,1,0],[1,1,0],[0,0.25,0],[0,0.5,0],[0,0.75,0],[1,0.25,0],[1,0.5,0],[1,0.75,0]];outlineConnect=0;fontColor=#232F3E;fillColor=#8C4FFF;strokeColor=#ffffff;dashed=0;verticalLabelPosition=bottom;verticalAlign=top;align=center;html=1;fontSize=12;fontStyle=0;aspect=fixed;shape=mxgraph.aws4.resourceIcon;resIcon=mxgraph.aws4.api_gateway;" parent="1" vertex="1">
          <mxGeometry x="480" y="465" width="80" height="80" as="geometry" />
        </mxCell>
        <mxCell id="d3FJ1h9GNW7J8V9dyUp9-7" style="edgeStyle=orthogonalEdgeStyle;rounded=0;orthogonalLoop=1;jettySize=auto;html=1;entryX=0;entryY=0.5;entryDx=0;entryDy=0;entryPerimeter=0;startArrow=classic;startFill=1;" parent="1" source="d3FJ1h9GNW7J8V9dyUp9-4" target="d3FJ1h9GNW7J8V9dyUp9-6" edge="1">
          <mxGeometry relative="1" as="geometry" />
        </mxCell>
        <mxCell id="d3FJ1h9GNW7J8V9dyUp9-12" value="slack-integration" style="sketch=0;points=[[0,0,0],[0.25,0,0],[0.5,0,0],[0.75,0,0],[1,0,0],[0,1,0],[0.25,1,0],[0.5,1,0],[0.75,1,0],[1,1,0],[0,0.25,0],[0,0.5,0],[0,0.75,0],[1,0.25,0],[1,0.5,0],[1,0.75,0]];outlineConnect=0;fontColor=#232F3E;fillColor=#ED7100;strokeColor=#ffffff;dashed=0;verticalLabelPosition=bottom;verticalAlign=top;align=center;html=1;fontSize=12;fontStyle=0;aspect=fixed;shape=mxgraph.aws4.resourceIcon;resIcon=mxgraph.aws4.lambda;" parent="1" vertex="1">
          <mxGeometry x="680" y="465" width="80" height="80" as="geometry" />
        </mxCell>
        <mxCell id="d3FJ1h9GNW7J8V9dyUp9-13" value="POST&amp;nbsp;&lt;br&gt;/slack/events" style="edgeStyle=orthogonalEdgeStyle;rounded=0;orthogonalLoop=1;jettySize=auto;html=1;entryX=0;entryY=0.5;entryDx=0;entryDy=0;entryPerimeter=0;" parent="1" source="d3FJ1h9GNW7J8V9dyUp9-6" target="d3FJ1h9GNW7J8V9dyUp9-12" edge="1">
          <mxGeometry relative="1" as="geometry" />
        </mxCell>
        <mxCell id="-pecQT9mD7vACu7W63CI-6" value="Event Bus" style="sketch=0;points=[[0,0,0],[0.25,0,0],[0.5,0,0],[0.75,0,0],[1,0,0],[0,1,0],[0.25,1,0],[0.5,1,0],[0.75,1,0],[1,1,0],[0,0.25,0],[0,0.5,0],[0,0.75,0],[1,0.25,0],[1,0.5,0],[1,0.75,0]];outlineConnect=0;fontColor=#232F3E;fillColor=#E7157B;strokeColor=#ffffff;dashed=0;verticalLabelPosition=bottom;verticalAlign=top;align=center;html=1;fontSize=12;fontStyle=0;aspect=fixed;shape=mxgraph.aws4.resourceIcon;resIcon=mxgraph.aws4.eventbridge;" parent="1" vertex="1">
          <mxGeometry x="840" y="465" width="80" height="80" as="geometry" />
        </mxCell>
        <mxCell id="-pecQT9mD7vACu7W63CI-13" style="edgeStyle=orthogonalEdgeStyle;rounded=0;orthogonalLoop=1;jettySize=auto;html=1;entryX=0;entryY=0.5;entryDx=0;entryDy=0;entryPerimeter=0;" parent="1" source="d3FJ1h9GNW7J8V9dyUp9-12" target="-pecQT9mD7vACu7W63CI-6" edge="1">
          <mxGeometry relative="1" as="geometry" />
        </mxCell>
        <mxCell id="9TwSJn2pRfQVIzZiMOYc-5" style="edgeStyle=orthogonalEdgeStyle;rounded=0;orthogonalLoop=1;jettySize=auto;html=1;entryX=0.5;entryY=0;entryDx=0;entryDy=0;" edge="1" parent="1" source="-pecQT9mD7vACu7W63CI-28" target="d3FJ1h9GNW7J8V9dyUp9-4">
          <mxGeometry relative="1" as="geometry">
            <Array as="points">
              <mxPoint x="1370" y="425" />
              <mxPoint x="1370" y="520" />
              <mxPoint x="1480" y="520" />
              <mxPoint x="1480" y="310" />
              <mxPoint x="360" y="310" />
            </Array>
          </mxGeometry>
        </mxCell>
        <mxCell id="-pecQT9mD7vACu7W63CI-28" value="app-home-opened" style="sketch=0;points=[[0,0,0],[0.25,0,0],[0.5,0,0],[0.75,0,0],[1,0,0],[0,1,0],[0.25,1,0],[0.5,1,0],[0.75,1,0],[1,1,0],[0,0.25,0],[0,0.5,0],[0,0.75,0],[1,0.25,0],[1,0.5,0],[1,0.75,0]];outlineConnect=0;fontColor=#232F3E;fillColor=#ED7100;strokeColor=#ffffff;dashed=0;verticalLabelPosition=bottom;verticalAlign=top;align=center;html=1;fontSize=12;fontStyle=0;aspect=fixed;shape=mxgraph.aws4.resourceIcon;resIcon=mxgraph.aws4.lambda;" parent="1" vertex="1">
          <mxGeometry x="1200" y="385" width="80" height="80" as="geometry" />
        </mxCell>
        <mxCell id="-pecQT9mD7vACu7W63CI-50" style="edgeStyle=orthogonalEdgeStyle;rounded=0;orthogonalLoop=1;jettySize=auto;html=1;exitX=0;exitY=0.75;exitDx=0;exitDy=0;exitPerimeter=0;startArrow=classic;startFill=1;entryX=1;entryY=0.5;entryDx=0;entryDy=0;entryPerimeter=0;" parent="1" source="-pecQT9mD7vACu7W63CI-37" target="-pecQT9mD7vACu7W63CI-46" edge="1">
          <mxGeometry relative="1" as="geometry" />
        </mxCell>
        <mxCell id="-pecQT9mD7vACu7W63CI-51" value="&lt;div&gt;&lt;br&gt;&lt;/div&gt;" style="edgeLabel;html=1;align=center;verticalAlign=middle;resizable=0;points=[];" parent="-pecQT9mD7vACu7W63CI-50" vertex="1" connectable="0">
          <mxGeometry x="-0.2212" y="-2" relative="1" as="geometry">
            <mxPoint as="offset" />
          </mxGeometry>
        </mxCell>
        <mxCell id="9TwSJn2pRfQVIzZiMOYc-3" style="edgeStyle=orthogonalEdgeStyle;rounded=0;orthogonalLoop=1;jettySize=auto;html=1;exitX=1;exitY=0.75;exitDx=0;exitDy=0;exitPerimeter=0;entryX=0.5;entryY=0;entryDx=0;entryDy=0;startArrow=classic;startFill=1;" edge="1" parent="1" source="-pecQT9mD7vACu7W63CI-37" target="-pecQT9mD7vACu7W63CI-39">
          <mxGeometry relative="1" as="geometry" />
        </mxCell>
        <mxCell id="9TwSJn2pRfQVIzZiMOYc-4" style="edgeStyle=orthogonalEdgeStyle;rounded=0;orthogonalLoop=1;jettySize=auto;html=1;entryX=0.5;entryY=0;entryDx=0;entryDy=0;" edge="1" parent="1" source="-pecQT9mD7vACu7W63CI-37" target="d3FJ1h9GNW7J8V9dyUp9-4">
          <mxGeometry relative="1" as="geometry">
            <Array as="points">
              <mxPoint x="1370" y="585" />
              <mxPoint x="1370" y="520" />
              <mxPoint x="1480" y="520" />
              <mxPoint x="1480" y="310" />
              <mxPoint x="360" y="310" />
            </Array>
          </mxGeometry>
        </mxCell>
        <mxCell id="-pecQT9mD7vACu7W63CI-37" value="translate-message" style="sketch=0;points=[[0,0,0],[0.25,0,0],[0.5,0,0],[0.75,0,0],[1,0,0],[0,1,0],[0.25,1,0],[0.5,1,0],[0.75,1,0],[1,1,0],[0,0.25,0],[0,0.5,0],[0,0.75,0],[1,0.25,0],[1,0.5,0],[1,0.75,0]];outlineConnect=0;fontColor=#232F3E;fillColor=#ED7100;strokeColor=#ffffff;dashed=0;verticalLabelPosition=bottom;verticalAlign=top;align=center;html=1;fontSize=12;fontStyle=0;aspect=fixed;shape=mxgraph.aws4.resourceIcon;resIcon=mxgraph.aws4.lambda;" parent="1" vertex="1">
          <mxGeometry x="1200" y="545" width="80" height="80" as="geometry" />
        </mxCell>
        <mxCell id="-pecQT9mD7vACu7W63CI-39" value="&#xa;&#xa;&#xa;&#xa;&#xa;&#xa;&#xa;LLM Provider" style="shape=image;aspect=fixed;image=data:image/svg+xml,PHN2ZyByb2xlPSJpbWciIHZpZXdCb3g9IjAgMCAyNCAyNCIgeG1sbnM9Imh0dHA6Ly93d3cudzMub3JnLzIwMDAvc3ZnIj48cGF0aCBkPSJNMjIuMjgyIDkuODIxYTUuOTg1IDUuOTg1IDAgMCAwLS41MTYtNC45MSA2LjA0NiA2LjA0NiAwIDAgMC02LjUxLTIuOUE2LjA2NSA2LjA2NSAwIDAgMCA0Ljk4MSA0LjE4YTUuOTg1IDUuOTg1IDAgMCAwLTMuOTk4IDIuOSA2LjA0NiA2LjA0NiAwIDAgMCAuNzQzIDcuMDk3IDUuOTggNS45OCAwIDAgMCAuNTEgNC45MTEgNi4wNTEgNi4wNTEgMCAwIDAgNi41MTUgMi45QTUuOTg1IDUuOTg1IDAgMCAwIDEzLjI2IDI0YTYuMDU2IDYuMDU2IDAgMCAwIDUuNzcyLTQuMjA2IDUuOTkgNS45OSAwIDAgMCAzLjk5Ny0yLjkgNi4wNTYgNi4wNTYgMCAwIDAtLjc0Ny03LjA3M3pNMTMuMjYgMjIuNDNhNC40NzYgNC40NzYgMCAwIDEtMi44NzYtMS4wNGwuMTQxLS4wODEgNC43NzktMi43NThhLjc5NS43OTUgMCAwIDAgLjM5Mi0uNjgxdi02LjczN2wyLjAyIDEuMTY4YS4wNzEuMDcxIDAgMCAxIC4wMzguMDUydjUuNTgzYTQuNTA0IDQuNTA0IDAgMCAxLTQuNDk0IDQuNDk0ek0zLjYgMTguMzA0YTQuNDcgNC40NyAwIDAgMS0uNTM1LTMuMDE0bC4xNDIuMDg1IDQuNzgzIDIuNzU5YS43NzEuNzcxIDAgMCAwIC43OCAwbDUuODQzLTMuMzY5djIuMzMyYS4wOC4wOCAwIDAgMS0uMDMzLjA2Mkw5Ljc0IDE5Ljk1YTQuNSA0LjUgMCAwIDEtNi4xNC0xLjY0NnpNMi4zNCA3Ljg5NmE0LjQ4NSA0LjQ4NSAwIDAgMSAyLjM2Ni0xLjk3M1YxMS42YS43NjYuNzY2IDAgMCAwIC4zODguNjc2bDUuODE1IDMuMzU1LTIuMDIgMS4xNjhhLjA3Ni4wNzYgMCAwIDEtLjA3MSAwbC00LjgzLTIuNzg2QTQuNTA0IDQuNTA0IDAgMCAxIDIuMzQgNy44NzJ6bTE2LjU5NyAzLjg1NWwtNS44MzMtMy4zODdMMTUuMTE5IDcuMmEuMDc2LjA3NiAwIDAgMSAuMDcxIDBsNC44MyAyLjc5MWE0LjQ5NCA0LjQ5NCAwIDAgMS0uNjc2IDguMTA1di01LjY3OGEuNzkuNzkgMCAwIDAtLjQwNy0uNjY3em0yLjAxLTMuMDIzbC0uMTQxLS4wODUtNC43NzQtMi43ODJhLjc3Ni43NzYgMCAwIDAtLjc4NSAwTDkuNDA5IDkuMjNWNi44OTdhLjA2Ni4wNjYgMCAwIDEgLjAyOC0uMDYxbDQuODMtMi43ODdhNC41IDQuNSAwIDAgMSA2LjY4IDQuNjZ6bS0xMi42NCA0LjEzNWwtMi4wMi0xLjE2NGEuMDguMDggMCAwIDEtLjAzOC0uMDU3VjYuMDc1YTQuNSA0LjUgMCAwIDEgNy4zNzUtMy40NTNsLS4xNDIuMDhMOC43MDQgNS40NmEuNzk1Ljc5NSAwIDAgMC0uMzkzLjY4MXptMS4wOTctMi4zNjVsMi42MDItMS41IDIuNjA3IDEuNXYyLjk5OWwtMi41OTcgMS41LTIuNjA3LTEuNXoiLz48L3N2Zz4=;" parent="1" vertex="1">
          <mxGeometry x="1321" y="665" width="80" height="80" as="geometry" />
        </mxCell>
        <mxCell id="-pecQT9mD7vACu7W63CI-46" value="translations" style="sketch=0;points=[[0,0,0],[0.25,0,0],[0.5,0,0],[0.75,0,0],[1,0,0],[0,1,0],[0.25,1,0],[0.5,1,0],[0.75,1,0],[1,1,0],[0,0.25,0],[0,0.5,0],[0,0.75,0],[1,0.25,0],[1,0.5,0],[1,0.75,0]];outlineConnect=0;fontColor=#232F3E;fillColor=#C925D1;strokeColor=#ffffff;dashed=0;verticalLabelPosition=bottom;verticalAlign=top;align=center;html=1;fontSize=12;fontStyle=0;aspect=fixed;shape=mxgraph.aws4.resourceIcon;resIcon=mxgraph.aws4.dynamodb;" parent="1" vertex="1">
          <mxGeometry x="1080" y="665" width="80" height="80" as="geometry" />
        </mxCell>
        <mxCell id="9TwSJn2pRfQVIzZiMOYc-1" style="edgeStyle=orthogonalEdgeStyle;rounded=0;orthogonalLoop=1;jettySize=auto;html=1;entryX=0;entryY=0.5;entryDx=0;entryDy=0;entryPerimeter=0;" edge="1" parent="1" source="-pecQT9mD7vACu7W63CI-6" target="-pecQT9mD7vACu7W63CI-37">
          <mxGeometry relative="1" as="geometry">
            <Array as="points">
              <mxPoint x="1120" y="505" />
              <mxPoint x="1120" y="585" />
            </Array>
          </mxGeometry>
        </mxCell>
        <mxCell id="9TwSJn2pRfQVIzZiMOYc-2" style="edgeStyle=orthogonalEdgeStyle;rounded=0;orthogonalLoop=1;jettySize=auto;html=1;entryX=0;entryY=0.5;entryDx=0;entryDy=0;entryPerimeter=0;" edge="1" parent="1" source="-pecQT9mD7vACu7W63CI-6" target="-pecQT9mD7vACu7W63CI-28">
          <mxGeometry relative="1" as="geometry">
            <Array as="points">
              <mxPoint x="1120" y="505" />
              <mxPoint x="1120" y="425" />
            </Array>
          </mxGeometry>
        </mxCell>
      </root>
    </mxGraphModel>
  </diagram>
</mxfile>
